<?xml version="1.0" encoding="utf-8"?>
<!-- Generator: Adobe Illustrator 18.1.0, SVG Export Plug-In . SVG Version: 6.00 Build 0)  -->
<svg version="1.0" id="Layer_1" xmlns="http://www.w3.org/2000/svg" xmlns:xlink="http://www.w3.org/1999/xlink" x="0px" y="0px"
	 viewBox="0 0 1280 800" enable-background="new 0 0 1280 800" xml:space="preserve">
<g>
	<path fill="#FDCD38" d="M642.2,405.6l-3.4,0l-0.1,3.6l3.6,0L642.2,405.6 M642.4,410.7l-3.7,0l-0.1,4.2l3.9,0L642.4,410.7
		 M642.5,416.6l-4,0l-0.1,5l4.3,0L642.5,416.6 M642.7,423.6l-4.4,0l-0.1,6l4.7,0L642.7,423.6 M643,432.1l-4.8,0l-0.2,7.3l5.2,0
		L643,432.1 M643.3,442.4l-5.3,0l-0.2,9.1l5.8,0L643.3,442.4 M643.7,455.4l-6,0l-0.3,11.7l6.6,0L643.7,455.4 M644.2,472.1l-6.9,0
		l-0.3,15.6l7.7,0L644.2,472.1 M644.9,494.5l-8.1,0l-0.5,21.7l9.2,0L644.9,494.5 M645.8,525.9l-9.7,0l-0.7,32.4l11.4,0L645.8,525.9
		 M647.3,573.5l-12.2,0l-1.2,53.5l15-0.1L647.3,573.5 M649.7,653.9l-16.4,0.1L631,758.8l21.9-0.1L649.7,653.9 M654.7,818.6l-25,0.2
		l-6.5,295.5l40.4-0.5L654.7,818.6 M642.1,401.2l-3.2,0l-0.1,3.1l3.4,0L642.1,401.2"/>
</g>
</svg>
