<?xml version="1.0" encoding="utf-8"?>
<!-- Generator: Adobe Illustrator 18.1.0, SVG Export Plug-In . SVG Version: 6.00 Build 0)  -->
<svg version="1.0" id="Layer_1" xmlns="http://www.w3.org/2000/svg" xmlns:xlink="http://www.w3.org/1999/xlink" x="0px" y="0px"
	 viewBox="0 0 1280 800" enable-background="new 0 0 1280 800" xml:space="preserve">
<g>
	<path fill="#FDCD38" d="M642.2,403.7l-3.4,0l-0.1,2l3.6,0L642.2,403.7 M642.4,406.5l-3.7,0l-0.1,2.4l3.9,0L642.4,406.5
		 M642.5,409.8l-4,0l-0.1,2.8l4.3,0L642.5,409.8 M642.8,413.8l-4.4,0l-0.1,3.3l4.7,0L642.8,413.8 M643,418.5l-4.8,0l-0.2,4.1l5.2,0
		L643,418.5 M643.3,424.3l-5.3,0l-0.2,5.1l5.8,0L643.3,424.3 M643.7,431.5l-6,0l-0.3,6.5l6.6,0L643.7,431.5 M644.3,440.9l-6.9,0
		l-0.3,8.7l7.7,0L644.3,440.9 M644.9,453.4l-8.1,0l-0.5,12.1l9.2,0L644.9,453.4 M645.9,471l-9.7,0l-0.7,18.1l11.4,0L645.9,471
		 M647.4,497.6l-12.2,0l-1.1,29.9l15,0L647.4,497.6 M649.8,542.6l-16.4,0l-2.2,58.7l21.9-0.1L649.8,542.6 M654.9,634.7l-25,0.1
		l-6.3,165.3l40.4-0.3L654.9,634.7 M642.1,401.2l-3.2,0l-0.1,1.8l3.4,0L642.1,401.2"/>
</g>
</svg>
