<?xml version="1.0" encoding="utf-8"?>
<!-- Generator: Adobe Illustrator 18.1.0, SVG Export Plug-In . SVG Version: 6.00 Build 0)  -->
<svg version="1.0" id="Layer_1" xmlns="http://www.w3.org/2000/svg" xmlns:xlink="http://www.w3.org/1999/xlink" x="0px" y="0px"
	 viewBox="0 0 1280 800" enable-background="new 0 0 1280 800" xml:space="preserve">
<g>
	<path fill="#FDCD38" d="M642.2,404.3l-3.4,0l-0.1,2.6l3.6,0L642.2,404.3 M642.4,407.9l-3.7,0l-0.1,3l3.9,0L642.4,407.9
		 M642.5,412.2l-4,0l-0.1,3.5l4.3,0L642.5,412.2 M642.8,417.2l-4.4,0l-0.1,4.2l4.7,0L642.8,417.2 M643,423.2l-4.8,0l-0.2,5.2l5.2,0
		L643,423.2 M643.3,430.5l-5.3,0l-0.2,6.5l5.8,0L643.3,430.5 M643.7,439.7l-6,0l-0.3,8.3l6.6,0L643.7,439.7 M644.2,451.6l-6.9,0
		l-0.3,11.1l7.7,0L644.2,451.6 M644.9,467.5l-8.1,0l-0.5,15.4l9.2,0L644.9,467.5 M645.9,489.9l-9.7,0l-0.7,23l11.4,0L645.9,489.9
		 M647.3,523.7l-12.2,0l-1.2,38l15,0L647.3,523.7 M649.8,580.9l-16.4,0l-2.3,74.5l21.9-0.1L649.8,580.9 M654.8,698l-25,0.1
		l-6.4,210.1l40.4-0.3L654.8,698 M642.1,401.2l-3.2,0l-0.1,2.2l3.4,0L642.1,401.2"/>
</g>
</svg>
