<?xml version="1.0" encoding="utf-8"?>
<!-- Generator: Adobe Illustrator 18.1.0, SVG Export Plug-In . SVG Version: 6.00 Build 0)  -->
<svg version="1.0" id="Layer_1" xmlns="http://www.w3.org/2000/svg" xmlns:xlink="http://www.w3.org/1999/xlink" x="0px" y="0px"
	 viewBox="0 0 1280 800" enable-background="new 0 0 1280 800" xml:space="preserve">
<g>
	<path fill="#FDCD38" d="M642.2,404.8l-3.4,0l-0.1,3l3.6,0L642.2,404.8 M642.4,409.1l-3.7,0l-0.1,3.5l3.9,0L642.4,409.1 M642.5,414
		l-4,0l-0.1,4.1l4.3,0L642.5,414 M642.7,419.8l-4.4,0l-0.1,5l4.7,0L642.7,419.8 M643,426.8l-4.8,0l-0.2,6l5.2,0L643,426.8
		 M643.3,435.4l-5.3,0l-0.2,7.6l5.8,0L643.3,435.4 M643.7,446.1l-6,0l-0.3,9.7l6.6,0L643.7,446.1 M644.2,460l-6.9,0l-0.3,12.9l7.7,0
		L644.2,460 M644.9,478.5l-8.1,0l-0.5,18l9.2,0L644.9,478.5 M645.9,504.6l-9.7,0l-0.7,26.8l11.4,0L645.9,504.6 M647.3,544l-12.2,0
		l-1.2,44.3l15,0L647.3,544 M649.8,610.6l-16.4,0.1l-2.3,86.9l21.9-0.1L649.8,610.6 M654.8,747.1l-25,0.1l-6.4,244.9l40.4-0.4
		L654.8,747.1 M642.1,401.2l-3.2,0l-0.1,2.6l3.4,0L642.1,401.2"/>
</g>
</svg>
