<?xml version="1.0" encoding="utf-8"?>
<!-- Generator: Adobe Illustrator 18.1.0, SVG Export Plug-In . SVG Version: 6.00 Build 0)  -->
<svg version="1.0" id="Layer_1" xmlns="http://www.w3.org/2000/svg" xmlns:xlink="http://www.w3.org/1999/xlink" x="0px" y="0px"
	 viewBox="0 0 1280 800" enable-background="new 0 0 1280 800" xml:space="preserve">
<g>
	<path fill="#FDCD38" d="M642.2,406l-3.4,0l-0.1,3.9l3.6,0L642.2,406 M642.4,411.5l-3.7,0l-0.1,4.6l3.9,0L642.4,411.5 M642.5,417.9
		l-4,0l-0.1,5.4l4.3,0L642.5,417.9 M642.7,425.6l-4.4,0l-0.1,6.5l4.7,0L642.7,425.6 M643,434.7l-4.8,0l-0.2,7.9l5.2,0L643,434.7
		 M643.3,446l-5.3,0l-0.2,9.9l5.8,0L643.3,446 M643.7,460l-6,0l-0.3,12.7l6.6,0L643.7,460 M644.2,478.2l-6.9,0L637,495l7.7,0
		L644.2,478.2 M644.9,502.4l-8.1,0l-0.5,23.6l9.2,0L644.9,502.4 M645.8,536.6l-9.7,0l-0.7,35.1l11.4,0L645.8,536.6 M647.2,588.3
		l-12.2,0l-1.2,58l15-0.1L647.2,588.3 M649.7,675.5l-16.4,0.1l-2.3,113.8l21.9-0.1L649.7,675.5 M654.6,854.3l-25,0.2l-6.6,320.8
		l40.4-0.5L654.6,854.3 M642.1,401.2l-3.2,0l-0.1,3.4l3.4,0L642.1,401.2"/>
</g>
</svg>
