<?xml version="1.0" encoding="utf-8"?>
<!-- Generator: Adobe Illustrator 18.1.0, SVG Export Plug-In . SVG Version: 6.00 Build 0)  -->
<svg version="1.0" id="Layer_1" xmlns="http://www.w3.org/2000/svg" xmlns:xlink="http://www.w3.org/1999/xlink" x="0px" y="0px"
	 viewBox="0 0 1280 800" enable-background="new 0 0 1280 800" xml:space="preserve">
<g>
	<path fill="#FDCD38" d="M642.2,405.8l-3.4,0l-0.1,3.8l3.6,0L642.2,405.8 M642.4,411.1l-3.7,0l-0.1,4.4l3.9,0L642.4,411.1
		 M642.5,417.3l-4,0l-0.1,5.2l4.3,0L642.5,417.3 M642.7,424.7l-4.4,0l-0.1,6.3l4.7,0L642.7,424.7 M643,433.5l-4.8,0l-0.2,7.6l5.2,0
		L643,433.5 M643.3,444.3l-5.3,0l-0.2,9.5l5.8,0L643.3,444.3 M643.7,457.9l-6,0l-0.3,12.2l6.6,0L643.7,457.9 M644.2,475.4l-6.9,0
		l-0.3,16.3l7.7,0L644.2,475.4 M644.9,498.8l-8.1,0l-0.5,22.7l9.2,0L644.9,498.8 M645.8,531.7l-9.7,0l-0.7,33.9l11.4,0L645.8,531.7
		 M647.3,581.5l-12.2,0l-1.2,55.9l15-0.1L647.3,581.5 M649.7,665.6l-16.4,0.1L631,775.3l21.9-0.1L649.7,665.6 M654.6,837.9l-25,0.2
		l-6.5,309.2l40.4-0.5L654.6,837.9 M642.1,401.2l-3.2,0l-0.1,3.3l3.4,0L642.1,401.2"/>
</g>
</svg>
