<?xml version="1.0" encoding="utf-8"?>
<!-- Generator: Adobe Illustrator 18.1.0, SVG Export Plug-In . SVG Version: 6.00 Build 0)  -->
<svg version="1.0" id="Layer_1" xmlns="http://www.w3.org/2000/svg" xmlns:xlink="http://www.w3.org/1999/xlink" x="0px" y="0px"
	 viewBox="0 0 1280 800" enable-background="new 0 0 1280 800" xml:space="preserve">
<g>
	<path fill="#FDCD38" d="M642.2,406l-3.4,0l-0.1,4l3.6,0L642.2,406 M642.4,411.6l-3.7,0l-0.1,4.6l3.9,0L642.4,411.6 M642.5,418.1
		l-4,0l-0.1,5.5l4.3,0L642.5,418.1 M642.7,425.8l-4.4,0l-0.1,6.6l4.7,0L642.7,425.8 M643,435.1l-4.8,0l-0.2,8l5.2,0L643,435.1
		 M643.3,446.4l-5.3,0l-0.2,10l5.8,0L643.3,446.4 M643.7,460.6l-6,0l-0.3,12.8l6.6,0L643.7,460.6 M644.2,479l-6.9,0L637,496l7.7,0
		L644.2,479 M644.9,503.5l-8.1,0l-0.5,23.8l9.2,0L644.9,503.5 M645.8,538l-9.7,0l-0.7,35.5l11.4,0L645.8,538 M647.2,590.2l-12.2,0
		l-1.2,58.6l15-0.1L647.2,590.2 M649.7,678.4l-16.4,0.1l-2.3,115l21.9-0.1L649.7,678.4 M654.6,859l-25,0.2l-6.6,324.1l40.4-0.5
		L654.6,859 M642.1,401.2l-3.2,0l-0.1,3.4l3.4,0L642.1,401.2"/>
</g>
</svg>
