<?xml version="1.0" encoding="utf-8"?>
<!-- Generator: Adobe Illustrator 18.1.0, SVG Export Plug-In . SVG Version: 6.00 Build 0)  -->
<svg version="1.0" id="Layer_1" xmlns="http://www.w3.org/2000/svg" xmlns:xlink="http://www.w3.org/1999/xlink" x="0px" y="0px"
	 viewBox="0 0 1280 800" enable-background="new 0 0 1280 800" xml:space="preserve">
<g>
	<path fill="#FDCD38" d="M642.2,406.1l-3.4,0l-0.1,4l3.6,0L642.2,406.1 M642.4,411.8l-3.7,0l-0.1,4.7l3.9,0L642.4,411.8
		 M642.5,418.4l-4,0l-0.1,5.6l4.3,0L642.5,418.4 M642.7,426.2l-4.4,0l-0.1,6.7l4.7,0L642.7,426.2 M643,435.6l-4.8,0l-0.2,8.1l5.2,0
		L643,435.6 M643.3,447.2l-5.3,0l-0.2,10.2l5.8,0L643.3,447.2 M643.7,461.6l-6,0l-0.3,13l6.6,0L643.7,461.6 M644.2,480.2l-6.9,0
		l-0.3,17.3l7.7,0L644.2,480.2 M644.9,505.2l-8.1,0l-0.5,24.2l9.2,0L644.9,505.2 M645.8,540.3l-9.7,0l-0.7,36.1l11.4,0L645.8,540.3
		 M647.2,593.3l-12.2,0l-1.2,59.6l15-0.1L647.2,593.3 M649.7,682.9l-16.4,0.1l-2.3,116.9l21.9-0.1L649.7,682.9 M654.6,866.5l-25,0.2
		l-6.6,329.5l40.4-0.6L654.6,866.5 M642.1,401.2l-3.2,0l-0.1,3.5l3.4,0L642.1,401.2"/>
</g>
</svg>
