<?xml version="1.0" encoding="utf-8"?>
<!-- Generator: Adobe Illustrator 18.1.0, SVG Export Plug-In . SVG Version: 6.00 Build 0)  -->
<svg version="1.0" id="Layer_1" xmlns="http://www.w3.org/2000/svg" xmlns:xlink="http://www.w3.org/1999/xlink" x="0px" y="0px"
	 viewBox="0 0 1280 800" enable-background="new 0 0 1280 800" xml:space="preserve">
<g>
	<path fill="#FDCD38" d="M642.2,403.9l-3.4,0l-0.1,2.2l3.6,0L642.2,403.9 M642.4,407.1l-3.7,0l-0.1,2.6l3.9,0L642.4,407.1
		 M642.5,410.8l-4,0l-0.1,3.1l4.3,0L642.5,410.8 M642.8,415.1l-4.4,0l-0.1,3.7l4.7,0L642.8,415.1 M643,420.3l-4.8,0l-0.2,4.5l5.2,0
		L643,420.3 M643.3,426.8l-5.3,0l-0.2,5.6l5.8,0L643.3,426.8 M643.7,434.8l-6,0l-0.3,7.2l6.6,0L643.7,434.8 M644.2,445.1l-6.9,0
		l-0.3,9.6l7.7,0L644.2,445.1 M644.9,459l-8.1,0l-0.5,13.4l9.2,0L644.9,459 M645.9,478.5l-9.7,0l-0.7,20.1l11.4,0L645.9,478.5
		 M647.4,508l-12.2,0l-1.2,33.1l15,0L647.4,508 M649.8,557.8l-16.4,0l-2.3,65l21.9-0.1L649.8,557.8 M654.9,659.9l-25,0.1l-6.4,183.2
		l40.4-0.3L654.9,659.9 M642.1,401.2l-3.2,0l-0.1,1.9l3.4,0L642.1,401.2"/>
</g>
</svg>
