<?xml version="1.0" encoding="utf-8"?>
<!-- Generator: Adobe Illustrator 18.1.0, SVG Export Plug-In . SVG Version: 6.00 Build 0)  -->
<svg version="1.0" id="Layer_1" xmlns="http://www.w3.org/2000/svg" xmlns:xlink="http://www.w3.org/1999/xlink" x="0px" y="0px"
	 viewBox="0 0 1280 800" enable-background="new 0 0 1280 800" xml:space="preserve">
<g>
	<path fill="#FDCD38" d="M642.2,405.3l-3.4,0l-0.1,3.4l3.6,0L642.2,405.3 M642.4,410.1l-3.7,0l-0.1,3.9l3.9,0L642.4,410.1
		 M642.5,415.6l-4,0l-0.1,4.7l4.3,0L642.5,415.6 M642.7,422.2l-4.4,0l-0.1,5.6l4.7,0L642.7,422.2 M643,430.1l-4.8,0l-0.2,6.8l5.2,0
		L643,430.1 M643.3,439.8l-5.3,0l-0.2,8.5l5.8,0L643.3,439.8 M643.7,451.9l-6,0l-0.3,10.9l6.6,0L643.7,451.9 M644.2,467.5l-6.9,0
		l-0.3,14.5l7.7,0L644.2,467.5 M644.9,488.4l-8.1,0l-0.5,20.3l9.2,0L644.9,488.4 M645.8,517.9l-9.7,0l-0.7,30.3l11.4,0L645.8,517.9
		 M647.3,562.4l-12.2,0l-1.2,50l15-0.1L647.3,562.4 M649.7,637.6l-16.4,0.1l-2.3,98.1l21.9-0.1L649.7,637.6 M654.7,791.7l-25,0.2
		l-6.5,276.5l40.4-0.5L654.7,791.7 M642.1,401.2l-3.2,0l-0.1,2.9l3.4,0L642.1,401.2"/>
</g>
</svg>
