<?xml version="1.0" encoding="utf-8"?>
<!-- Generator: Adobe Illustrator 18.1.0, SVG Export Plug-In . SVG Version: 6.00 Build 0)  -->
<svg version="1.0" id="Layer_1" xmlns="http://www.w3.org/2000/svg" xmlns:xlink="http://www.w3.org/1999/xlink" x="0px" y="0px"
	 viewBox="0 0 1280 800" enable-background="new 0 0 1280 800" xml:space="preserve">
<g>
	<path fill="#FDCD38" d="M642.2,405.1l-3.4,0l-0.1,3.2l3.6,0L642.2,405.1 M642.4,409.6l-3.7,0l-0.1,3.7l3.9,0L642.4,409.6
		 M642.5,414.8l-4,0l-0.1,4.4l4.3,0L642.5,414.8 M642.7,421.1l-4.4,0l-0.1,5.3h4.7L642.7,421.1 M643,428.5l-4.8,0L638,435l5.2,0
		L643,428.5 M643.3,437.7l-5.3,0l-0.2,8.1l5.8,0L643.3,437.7 M643.7,449.1l-6,0l-0.3,10.3l6.6,0L643.7,449.1 M644.2,463.9l-6.9,0
		l-0.3,13.8l7.7,0L644.2,463.9 M644.9,483.7l-8.1,0l-0.5,19.2l9.2,0L644.9,483.7 M645.9,511.6l-9.7,0l-0.7,28.6l11.4,0L645.9,511.6
		 M647.3,553.7l-12.2,0l-1.2,47.3l15,0L647.3,553.7 M649.7,624.8l-16.4,0.1l-2.3,92.8l21.9-0.1L649.7,624.8 M654.7,770.6l-25,0.2
		l-6.5,261.5l40.4-0.4L654.7,770.6 M642.1,401.2l-3.2,0l-0.1,2.8l3.4,0L642.1,401.2"/>
</g>
</svg>
