<?xml version="1.0" encoding="utf-8"?>
<!-- Generator: Adobe Illustrator 18.1.0, SVG Export Plug-In . SVG Version: 6.00 Build 0)  -->
<svg version="1.0"
	 id="svg2372" xmlns:dc="http://purl.org/dc/elements/1.1/" xmlns:sodipodi="http://sodipodi.sourceforge.net/DTD/sodipodi-0.dtd" xmlns:inkscape="http://www.inkscape.org/namespaces/inkscape" xmlns:svg="http://www.w3.org/2000/svg" xmlns:cc="http://web.resource.org/cc/" xmlns:rdf="http://www.w3.org/1999/02/22-rdf-syntax-ns#" inkscape:output_extension="org.inkscape.output.svg.inkscape" sodipodi:docname="SnEptUne_Mountain_in_Ink.svg" inkscape:version="0.45.1" sodipodi:docbase="/Users/johnolsen/Desktop" sodipodi:version="0.32"
	 xmlns="http://www.w3.org/2000/svg" xmlns:xlink="http://www.w3.org/1999/xlink" x="0px" y="0px" viewBox="0 0 1280 800"
	 enable-background="new 0 0 1280 800" xml:space="preserve">
<sodipodi:namedview  height="400px" width="400px" id="base" objecttolerance="10" borderopacity="1.0" inkscape:cx="429.24151" pagecolor="#ffffff" guidetolerance="10" inkscape:cy="207.91935" inkscape:zoom="0.5" gridtolerance="10000" bordercolor="#666666" inkscape:window-y="42" inkscape:window-x="20" inkscape:window-height="602" inkscape:current-layer="layer1" inkscape:pageopacity="0.0" inkscape:document-units="px" inkscape:window-width="889" inkscape:pageshadow="2">
	</sodipodi:namedview>
<g id="layer1" transform="translate(-20.06727,-89.681285)" inkscape:label="Layer 1" inkscape:groupmode="layer">
	<path id="path3558" fill="#004F00" d="M680.5,95.5c-3.4,0.3-7.1,2-10.8,5.4c-7.4,8.4-14.2,17.2-18.5,27.3
		c-8.1,17.2-15.9,34.4-23.9,51.6c-10.5,22.9-21.2,46.2-35.1,67.5c-11.1,16.2-22.6,32-37.4,45.2c-5.7,5.7-13.5,11.5-16.5,18.2
		c-2.4,5.1,6.4,13.5,11.5,10.8c7.1-3.4,12.1-11.5,17.5-17.5c12.5-16.5,21.6-35.1,31.4-53c12.1-22.6,24.3-44.9,36.8-67.1
		c8.8-16.5,18.5-32.4,29.3-47.6c4.4-7.4,10.8-12.8,17.5-17.5c5.1,6.4,7.4,14.8,10.5,22.3c4,10.8,7.8,21.9,10.8,33.1
		c3,11.1,9.8,15.9,19.9,19.6c6.4,1.3,12.5-0.7,18.9-2c0.7-0.7,0.7-0.7,1-1c-0.3,0.3-0.3,0.7,1.3-0.7c15.9,8.8,29,21.2,41.1,34.1
		c15.2,16.9,26.6,36.1,36.4,56.3c4.4,7.8,7.4,16.2,9.1,24.6c-1.7,0.3-3.4,0.7-5.1,1c-13.2,4-13.8,13.8-11.1,25.3
		c1.7,5.4,3.7,10.5,5.7,15.9c-3-1-5.7-2.4-8.8-3.4c-7.8-2.4-15.5-2.7-23.6-2.7c-8.8,0-15.2,3.4-21.9,8.4c-2.7,3.4-6.1,6.4-9.1,9.4
		c-3.4,2-7.4,1.3-11.1,1.7c-11.1-1.3-22.3-2-33.7-1.7c-13.5,4.7-16.9,16.5-21.9,28.7c-4.7,12.1-12.5,20.9-21.9,29.3
		c-6.7,5.1-14.5,5.1-22.3,5.4c-6.4-1.7-8.4-6.7-12.1-11.8c-3.7-7.1-6.1-14.8-9.1-22.3c-3.4-10.5-9.8-18.2-17.2-25.6
		c-10.5-8.1-22.3-8.1-34.7-7.8c-8.4,1-17.2,2.4-25.6,3c0-1.7-4.4-5.7-5.4-7.1c-5.7-5.7-12.1-6.7-19.9-7.1h-0.3l0,0
		c-3-0.3-5.7-0.3-6.7,1c-4.4,1.3-6.7,4.4-10.5,9.1c-0.3,0.3,0,0.7,0,1c1.7,2,3.4,3.7,4.7,5.1c-1.3,2.7-3,5.1-4.4,7.8
		c-10.1,16.5-22.6,31-35.4,45.5c-17.2,19.2-35.8,37.4-53.6,56c-18.2,19.2-37.1,37.4-56,55.6c-18.5,17.5-37.1,35.1-55.6,52.3
		c-17.9,17.9-36.8,34.7-55.3,51.6c-19.9,18.9-40.8,36.8-62.7,53.6c-17.2,11.8-35.1,23.3-53,33.7c-25.3,26.6,6.1,38.1,31,31.4
		c30.4-10.5,61-18.9,92.7-24.3c15.9-2.4,32-4.4,47.9-4.4c-6.4,12.5-13.8,24.6-19.6,37.4c-10.1,22.9-1,41.5,23.9,45.5
		c21.2-3.4,41.8-10.1,63.1-14.2c16.9-2.4,33.7-3,50.9-4.7c18.5-2,37.4-4.4,56.3-4.7c9.1-1,17.5-0.3,25.6,1.7c-0.3,0.7-0.7,1.3-1,2.4
		c-8.8,13.8-18.2,26.6-17.5,43.8c7.1,22.3,26.6,17.2,43.8,11.1c13.5-5.4,27.7-8.1,42.2-8.8c4,2,5.1,4,8.1,8.4
		c8.4,11.5,19.9,19.2,32,26.6c10.8,6.4,22.3,9.4,34.4,10.8c-2,0.7-4,1.7-6.1,2.7c-9.8,5.7-16.9,12.8-27.7,16.9c-0.3,0,0,1.3,0.3,1
		c10.5-4,20.2-4,31.4-5.4c23.6-5.4,47.2-11.8,71.5-13.8c20.2-2,41.1-0.7,60.4-7.8c15.2-7.8,19.6-19.2,13.5-35.4
		c-3.4-9.8-6.4-17.5,2.4-23.6c9.4-6.7,20.2-11.5,32-13.5c32-8.8,64.4-16.5,97.1-21.9c39.8-6.1,80.3-10.5,120.4-2.7
		c5.7,1,14.8,2.4,22.9,4c2.7,6.1,7.1,9.8,11.8,13.8c7.1,5.1,14.8,4.7,22.9,5.1c23.3-0.7,29.3-35.1,11.1-48.2c-2.4-0.3-4.7-1-7.1-1
		l0.3,0.3c-0.3,0-0.7-0.3-1-0.3c-5.1-0.7-10.5-0.7-15.9-0.3c1.7-1.3,4-2.4,7.1-2.4c1,0.3,2.4,0.3,3.4,0.3c-0.3,0-0.7-0.3-0.7-0.3
		c-7.4-4.7-14.8-9.4-21.2-15.9c-11.8-12.1-22.9-25-34.1-38.1c-16.5-21.2-33.1-42.8-45.9-66.4c-18.5-30.7-36.4-61.4-54-92.7
		c-17.2-31.7-33.4-63.7-51.3-94.8c-13.2-23.3-27-45.9-39.8-69.1c-5.7-10.5-10.1-21.6-11.8-33.7c1.7-0.3,3-1,4.7-1.3
		c10.5-5.7,16.5-13.2,11.1-25.3c-7.8-10.1-16.5-19.2-24.3-29.3c-13.8-18.2-26.6-37.1-40.5-55c-11.5-14.8-23.6-29-33.4-44.5
		c-6.7-6.7-11.8-11.5-22.3-9.1c-2.4,0.3-4.4,1.3-6.4,1.3c-1.7-1-4.7-0.7-5.4-2.7c-5.7-9.4-10.8-19.6-13.8-30
		c-3-11.1-5.4-22.6-10.5-33.1C691.6,97.9,686.2,94.9,680.5,95.5z"/>
	<path id="path3556" fill="#004F00" d="M1061.2,785.3c1.7,1,3.4,2,5.1,2.7c0.3,0,0.3,0,0.7,0.3
		C1065.6,786.6,1063.6,785.6,1061.2,785.3z"/>
	<path id="path3554" fill="#004F00" d="M717.2,119.2C720.9,119.8,718.9,119.5,717.2,119.2C716.9,119.2,716.9,119.2,717.2,119.2z"/>
	<path id="path3552" fill="#004F00" d="M844,325.2c0,1.3,0.3,3,0.3,4.4C841.7,329.6,842.3,327.6,844,325.2z"/>
	<path id="path3548" fill="#004F00" d="M127.3,672.3c0.3,2-0.7,3.7-3.7,4.7C125,675.3,126.3,674,127.3,672.3z"/>
	<path id="path3537" fill="#004F00" d="M288.6,678.3c1.7,0.3,3.4,0.7,5.1,1C291.9,680,290.2,679.4,288.6,678.3z"/>
	<path id="path3562" fill="#FFFFFF" d="M899,362.3c2.4-4.4,5.1-8.8,7.4-13.5c4-6.4,9.4-11.8,15.2-16.9c9.1-7.8,18.9-14.8,29-21.9
		c9.8-7.1,20.2-11.8,31.4-16.2c11.1-4,21.6-2,32.7,0c10.8,2.4,20.9,7.1,31,11.8c10.5,5.4,21.2,10.5,32,15.2
		c12.1,5.1,25,8.1,37.4,10.8c12.1,2.7,24.3,4,36.4,5.4c10.8,1,21.9,1.7,32.7,2.7c11.5,1.3,22.9,4,34.1,7.1
		c10.8,2.4,21.2,6.7,31,11.5c7.8,3,14.5,8.1,21.2,13.2c5.1,3.4,7.4,8.4,10.1,13.5c1,8.8-2.4,11.1-10.1,13.5c-9.4,0.3-18.9-2-28-3.7
		c-10.8-1.7-21.6-3.7-32.7-5.4c-7.1-1-14.5-1.3-21.2-1.7c-3.4,4.7-9.8,6.1-14.8,8.4c-10.5,6.1-21.2,8.4-32.7,10.1
		c-14.5,0-28-4.7-41.5-9.1c-9.4-3-18.9-6.4-28.7-8.8c-5.7-1-11.5,0-17.2,0.7c-7.1,1.7-14.2,3.4-21.6,4.7c-9.8,2-19.2,1-29-0.7
		c-7.1-2.4-14.2-2.7-21.2-3.4c-6.7-0.3-13.8-1-20.6-1.3c-8.1-0.3-15.9-0.3-23.9-0.3c-7.4-1-15.2-1.3-22.9-1.7
		c-6.1-0.3-11.8-2.7-17.5-4.4c-4.4-1.7-5.1-5.4-7.4-9.1c-0.3-0.3-0.3-1,0-1.3l0,0c3.4-2.7,5.1-6.1,9.4-6.4
		c5.7-0.7,11.5-1.3,16.9-0.7c7.1,0.7,13.8,1,20.9,0c7.4,0,15.2-0.3,22.6-1.7c6.7-1.3,13.5-2.7,20.2-3.7c8.1-1,16.2-2.7,23.9-3.7
		c6.1-1,11.8-1.7,17.5-3.4c7.8-2.7,15.5-5.7,23.6-7.4c12.1-1.7,23.9-3,35.8,0.3c11.1,3.4,21.6,7.4,32.4,12.1
		c8.4,3,16.5,6.4,25.6,6.7c7.4,0.3,14.8,0.3,22.3-2.4c11.1-2.7,21.9-6.4,33.1-3c7.4,3.7,14.8,7.8,21.2,13.2
		c9.1,5.4,18.5,10.8,28.7,14.2c7.8,2,14.8,4,22.9,1c0.3,0.3,0.7,0.7,0.7,1c-1.3-3-1-6.7-4.4-9.1c-5.4-5.4-10.5-10.8-17.5-14.2
		c-9.4-4.7-18.9-9.8-29.3-12.1c-11.1-2.4-22.3-4.7-33.4-6.1c-10.8-1-21.9-1.7-32.7-3.4c-12.1-2-24.3-4.4-36.4-6.7
		c-13.2-2.7-26.3-5.1-38.8-10.5c-11.1-4.4-22.3-8.8-33.1-13.5c-9.4-4-19.2-8.4-29.3-10.5c-9.4-1-18.9-2-28.3,0.7
		c-10.5,3.4-20.6,7.4-29.7,13.8c-9.1,6.7-18.2,13.8-25.3,23.3c-4,5.4-8.4,10.5-12.1,16.2c-2.4,4-5.1,8.1-7.4,12.1
		C908.1,371.8,897,366.4,899,362.3z"/>
	<path id="path3564" fill="#FFFFFF" d="M67,323.2c5.7-3,11.1-6.4,16.5-9.4c10.5-5.1,20.2-10.8,30-16.9c9.8-6.1,19.9-11.1,30-16.2
		c9.4-4.7,19.2-7.1,29.7-8.8c10.1,0,18.5,4.7,27.3,9.1c7.8,4.4,15.9,7.8,23.9,10.8c9.1,2.7,18.9,2.7,28.3,2.4c9.1-1,17.9-0.7,27,0
		c10.5,2,20.2,5.7,30.4,9.1c12.8,3.7,25.6,7.4,38.4,10.5c12.1,3,24.6,5.1,37.1,7.1c12.5,2,25.3,2,37.8,2.4c11.1,0.3,21.9-1,32.7-3
		c3.7-0.7,7.1-3,10.1-5.1c2.4,5.1,0.3,11.5,2,16.9c-6.4,2.7-12.8,5.7-19.2,8.4c-10.5,5.1-22.3,6.7-33.4,8.8c-15.9,3-32,2.4-48.2,1.7
		c-10.8-1-20.9-1.3-31.7,0.7c-8.8,2.7-16.9,6.7-25,10.8c-14.5,6.1-29.7,5.1-44.9,3.7c-16.5-1.3-33.4-2.4-49.9-3.7
		c-10.1-0.7-20.2-1.3-30.7-0.7c-6.7,1-12.8,3.7-18.9,6.1c-7.1,3.7-15.2,6.1-22.9,8.1c-7.4,2-14.2,0.7-21.2-0.7
		c-4.4-1-8.8-2.4-13.2-3.7c-5.1-0.7-9.4-3.4-13.8-5.1c-2.7-3.4-7.4-4-11.5-5.4c-4.7-3-10.8-3.4-16.2-4.7c-6.7-0.7-10.5-5.7-15.9-9.1
		c1.3-3-4.7-2.7-5.4-3c-0.3-0.3-0.3-1,0-1.3l0,0c2-0.7,5.1,0.7,6.4-2.4c6.4-1,11.8-4.4,18.2-2.4c6.1,1,12.5,2.4,18.9,2.7
		c4.7,1,9.8,2.7,14.5,2.4c2.7,0.7,5.1,2,7.8,1.3c3-0.7,6.1-1.3,8.8-2.7c3.4-2,6.7-4,10.8-5.1c6.1-2.4,12.1-5.4,18.2-7.8
		c9.8-3.7,19.6-7.8,30-9.1c13.5-1.3,26.6-1.3,40.1,1.3c15.5,2,31,4,46.5,4c10.1-0.7,20.2-1,30-3.4c11.1-2.7,21.9-6.7,33.1-9.1
		c14.2-0.7,28-0.3,41.5,4c13.8,2.7,27.3,5.4,41.5,5.1c10.5-0.3,20.9-1,31.4-1c5.7-0.7,11.8-0.3,16.9-3c10.5-5.7,19.9-3,15.9,11.5
		c-6.4,1.3-13.2,2.7-19.9,1.3c-11.5-0.3-22.9-0.7-34.1-2c-12.8-1.3-25.3-3-38.1-4.7c-12.5-2-25-4.4-37.1-7.8
		c-12.8-3.4-25.6-7.1-38.8-9.4c-10.1-2-19.9-4.4-30-6.1c-8.4-1-17.2-1.7-25.6-0.7c-10.1,0.7-20.6,1.7-30.7-0.3
		c-9.1-2.4-17.9-5.4-26.3-10.1c-7.1-3.4-14.5-7.1-22.3-7.8c-9.1,0.7-17.9,3-26.3,7.1c-10.1,4.4-20.2,9.1-29.3,15.2
		c-9.4,6.1-18.9,11.8-26.6,19.9c-3.7,4-8.1,8.1-10.5,13.2C77.8,343.8,60.9,326.6,67,323.2z"/>
</g>
</svg>
