<?xml version="1.0" encoding="UTF-8" standalone="no"?>
<!-- Created with Inkscape (http://www.inkscape.org/) -->

<svg
   xmlns:dc="http://purl.org/dc/elements/1.1/"
   xmlns:cc="http://creativecommons.org/ns#"
   xmlns:rdf="http://www.w3.org/1999/02/22-rdf-syntax-ns#"
   xmlns:svg="http://www.w3.org/2000/svg"
   xmlns="http://www.w3.org/2000/svg"
   xmlns:sodipodi="http://sodipodi.sourceforge.net/DTD/sodipodi-0.dtd"
   xmlns:inkscape="http://www.inkscape.org/namespaces/inkscape"
   width="426.88071"
   height="401.84567"
   id="svg2"
   version="1.1"
   inkscape:version="0.48.1 r9760"
   sodipodi:docname="Nouveau document 1">
  <defs
     id="defs4" />
  <sodipodi:namedview
     id="base"
     pagecolor="#ffffff"
     bordercolor="#666666"
     borderopacity="1.0"
     inkscape:pageopacity="0.0"
     inkscape:pageshadow="2"
     inkscape:zoom="1.4"
     inkscape:cx="281.6248"
     inkscape:cy="176.78904"
     inkscape:document-units="px"
     inkscape:current-layer="layer1"
     showgrid="false"
     fit-margin-left="5"
     fit-margin-top="5"
     fit-margin-bottom="5"
     fit-margin-right="5"
     inkscape:window-width="1280"
     inkscape:window-height="1000"
     inkscape:window-x="0"
     inkscape:window-y="24"
     inkscape:window-maximized="1" />
  <metadata
     id="metadata7">
    <rdf:RDF>
      <cc:Work
         rdf:about="">
        <dc:format>image/svg+xml</dc:format>
        <dc:type
           rdf:resource="http://purl.org/dc/dcmitype/StillImage" />
        <dc:title></dc:title>
      </cc:Work>
    </rdf:RDF>
  </metadata>
  <g
     inkscape:label="Calque 1"
     inkscape:groupmode="layer"
     id="layer1"
     transform="translate(-178.26513,-396.70896)">
    <path
       sodipodi:type="arc"
       style="fill:#e6e6e6;fill-opacity:1;stroke:none"
       id="path3043"
       sodipodi:cx="274.28571"
       sodipodi:cy="748.43359"
       sodipodi:rx="129.28572"
       sodipodi:ry="76.071426"
       d="m 403.57143,748.43359 c 0,42.01309 -57.88319,76.07143 -129.28572,76.07143 -71.40254,0 -129.28573,-34.05834 -129.28573,-76.07143 0,-42.01308 57.88319,-76.07142 129.28573,-76.07142 71.40253,0 129.28572,34.05834 129.28572,76.07142 z"
       transform="matrix(1.2983425,0,0,1.2983425,50.31177,-283.84206)" />
    <path
       style="fill:#cccccc;fill-opacity:1;stroke:none"
       d="m 449.83547,676.24715 c -11.7492,1.24283 -23.48727,2.70555 -35.27051,3.76022 -17.19389,1.73928 -34.48522,2.79676 -51.68942,4.54986 -2.30379,0.0719 -3.34215,2.43376 -3.36928,4.45586 -2.90005,18.96594 -5.18707,37.9935 -8.21149,56.94015 -1.19565,8.37683 -2.75905,16.71657 -3.95822,25.09831 -0.0277,2.56216 2.81663,3.66449 4.99533,3.27329 14.797,-0.97736 29.56742,-1.88764 44.37023,-2.77155 25.93449,-1.61681 51.86295,-3.37881 77.72949,-5.87638 1.95379,-0.0597 4.40321,-0.20382 4.99878,-2.5245 0.35171,-2.27819 -1.17674,-4.30938 -1.65248,-6.4852 -8.06335,-23.53012 -15.06186,-47.39614 -22.34714,-71.18663 -1.01983,-2.65404 -1.42794,-5.63007 -2.89235,-8.06323 -0.66502,-0.84694 -1.63363,-1.25235 -2.70294,-1.1702 z"
       id="path3037"
       inkscape:connector-curvature="0" />
    <path
       style="fill:#ffcc00;fill-opacity:1;stroke:none"
       d="m 430.89102,637.2075 c -14.8027,1.411 -29.53246,3.33538 -44.37209,4.35353 -5.88519,0.61151 -11.9077,0.43457 -17.71113,1.45201 -3.02006,1.11283 -1.87287,4.88023 -2.73331,7.34751 -0.93152,5.38317 -2.31575,10.69373 -3.27499,16.07686 0.0123,2.59618 2.90173,3.73686 5.06696,3.0134 24.4062,-2.07497 48.84641,-3.87531 73.14722,-6.88486 2.79578,-0.20586 3.70066,-3.60642 2.04501,-5.61747 -3.08548,-6.1478 -5.88031,-12.45702 -8.93107,-18.59142 -0.837,-0.94492 -2.00526,-1.27771 -3.2366,-1.14956 z"
       id="path3025"
       inkscape:connector-curvature="0" />
    <path
       style="fill:#808080;fill-opacity:1;stroke:none"
       d="m 275.612,639.66286 c -2.76016,0.53905 -3.27465,4.52876 -0.71429,5.70312 20.62954,10.06218 41.80793,19.48498 64.11831,25.2009 2.57833,0.60833 6.31956,1.94662 7.94642,-1.08259 1.56927,-4.32993 1.93634,-9.04653 3.09625,-13.5109 0.49512,-3.44516 1.99652,-6.84178 1.64706,-10.33955 -1.60346,-3.059 -5.56053,-1.69526 -8.32589,-2.00893 -21.90625,0.58204 -43.76397,-1.05894 -65.46875,-3.87277 -0.76516,-0.0796 -1.52995,-0.18455 -2.29911,-0.0893 z"
       id="path3021"
       inkscape:connector-curvature="0" />
    <path
       style="fill:#808080;fill-opacity:1;stroke:none"
       d="m 515.38878,621.06911 c -13.68518,3.83589 -27.57877,6.97119 -41.58482,9.44196 -7.13163,1.4252 -14.42494,2.12106 -21.50669,3.81697 -2.54082,0.90201 -2.36286,4.09077 -1.02679,5.94866 2.87623,5.95556 5.66237,11.95355 8.81696,17.76786 2.21845,2.74249 5.54494,0.22958 8.05173,-0.6535 17.23975,-7.69731 32.82247,-18.55928 48.0013,-29.63141 2.02859,-1.04895 3.99009,-3.94877 1.81581,-5.81316 -0.61507,-0.74113 -1.63576,-0.9985 -2.5675,-0.87738 z"
       id="path3023"
       inkscape:connector-curvature="0" />
    <path
       style="fill:#cccccc;fill-opacity:1;stroke:none"
       d="m 509.21842,479.88912 c -5.16286,-0.51069 -12.57472,0.15603 -10.54063,7.32316 -0.32179,13.7234 1.20666,28.97101 -8.36816,40.09088 -10.52337,16.89403 -27.24718,29.74883 -46.37232,35.41847 -27.83604,8.48536 -57.18895,12.34659 -86.30444,13.7752 -29.17338,1.14131 -59.05623,-6.56009 -83.18021,-22.99284 -6.74023,-7.63924 -9.59479,-17.72049 -12.27967,-27.33726 -3.93635,-4.1828 -10.02539,0.66147 -14.52417,1.44757 -20.16875,6.68924 -38.96849,21.94007 -45.51677,42.65191 -4.47064,14.94628 7.63095,28.23673 19.72954,35.1028 30.68278,17.77792 66.93439,21.98989 101.7413,23.32821 56.16233,0.33793 112.32471,-5.47412 167.27495,-16.92006 29.4808,-6.3722 60.19774,-17.33761 79.29698,-42.0476 12.75009,-15.0086 16.41308,-38.73031 4.38785,-55.27428 -12.82326,-19.47196 -35.3212,-32.17381 -58.39945,-34.43989 -2.30887,-0.16881 -4.63084,-0.18785 -6.9448,-0.12627 z"
       id="path3011"
       inkscape:connector-curvature="0" />
    <path
       style="fill:#5fbcd3;fill-opacity:1;stroke:none"
       id="path3007"
       d="m 285.40805,539.63752 c -0.10279,-0.15546 -0.74998,-0.70772 -0.25419,-0.29554 0.31964,0.26438 0.64744,0.5187 0.9749,0.77329 0.34149,0.2631 0.6906,0.51627 1.04782,0.75758 0.4915,0.3374 0.99699,0.65352 1.5013,0.9712 0.58886,0.36903 1.18551,0.7251 1.78439,1.07752 0.68402,0.39902 1.37653,0.78305 2.06967,1.16591 0.7806,0.43372 1.5726,0.84624 2.36358,1.26055 0.86983,0.45274 1.74131,0.90219 2.61764,1.34222 0.90671,0.46517 1.82221,0.9126 2.74206,1.35108 0.90571,0.43241 1.82342,0.83885 2.74549,1.23493 0.99444,0.42551 1.99713,0.8312 3.00333,1.22796 1.05718,0.4126 2.12118,0.80741 3.18831,1.19346 1.11646,0.40429 2.244,0.77691 3.37219,1.14685 1.19523,0.39113 2.39729,0.76064 3.60224,1.1205 1.2336,0.37136 2.47862,0.70234 3.72658,1.02138 1.30977,0.33772 2.62976,0.63329 3.95037,0.92498 1.32198,0.28949 2.65038,0.54811 3.98296,0.78364 1.42711,0.25173 2.85941,0.4722 4.29174,0.69168 1.42384,0.21672 2.85405,0.38793 4.28358,0.56189 1.45954,0.17433 2.92186,0.32413 4.38512,0.46337 1.4952,0.14117 2.99141,0.27102 4.48898,0.38445 1.46375,0.10696 2.92942,0.18312 4.3954,0.25144 1.45923,0.0676 2.91953,0.10385 4.38005,0.1267 1.42435,0.022 2.84867,-0.003 4.27233,-0.0464 1.50097,-0.051 3.00067,-0.13122 4.49997,-0.21729 1.52592,-0.0896 3.05025,-0.20294 4.57403,-0.32291 1.52734,-0.1224 3.05182,-0.27678 4.57631,-0.42976 1.56978,-0.16405 3.13913,-0.3321 4.70796,-0.50494 1.60599,-0.17581 3.21212,-0.35028 4.81662,-0.53935 1.58493,-0.18454 3.16667,-0.39485 4.74845,-0.6043 1.60447,-0.21296 3.2081,-0.43246 4.811,-0.6569 1.60866,-0.22504 3.21646,-0.45626 4.82299,-0.696 1.6192,-0.24045 3.23708,-0.48944 4.85474,-0.73996 1.61381,-0.25018 3.22679,-0.50588 4.83902,-0.76602 1.5948,-0.25059 3.18586,-0.52312 4.77534,-0.80525 1.58501,-0.28182 3.166,-0.58516 4.74464,-0.90054 1.57221,-0.31942 3.13946,-0.66266 4.70513,-1.01259 1.62943,-0.36763 3.25804,-0.73898 4.88602,-1.11298 1.60848,-0.36775 3.2147,-0.74519 4.81625,-1.14204 1.56538,-0.38237 3.12125,-0.8019 4.6746,-1.2301 1.47136,-0.40529 2.93028,-0.85334 4.38324,-1.31975 1.36213,-0.43743 2.70928,-0.91859 4.04566,-1.42873 1.27641,-0.49323 2.53687,-1.02692 3.78835,-1.58004 1.21018,-0.53647 2.40626,-1.10366 3.59213,-1.6917 1.1253,-0.5548 2.22905,-1.15139 3.32615,-1.75959 0.95676,-0.5262 1.88207,-1.10523 2.79555,-1.70252 0.86291,-0.56734 1.69593,-1.17779 2.52247,-1.79634 0.82254,-0.61759 1.62445,-1.26178 2.41705,-1.91714 0.7855,-0.651 1.54789,-1.329 2.30147,-2.01648 0.76329,-0.69794 1.50297,-1.42091 2.2338,-2.15258 0.70737,-0.71778 1.393,-1.45659 2.06387,-2.20847 0.68057,-0.7663 1.33477,-1.55534 1.98092,-2.35068 0.68791,-0.85152 1.35227,-1.72168 2.01824,-2.59036 0.67899,-0.89049 1.34628,-1.78981 2.00379,-2.69627 0.6509,-0.89863 1.27887,-1.81345 1.89835,-2.73392 0.62489,-0.92975 1.22747,-1.8741 1.81908,-2.82528 0.59265,-0.95472 1.16317,-1.92281 1.72265,-2.89725 0.55006,-0.95861 1.07381,-1.93189 1.58735,-2.91044 0.33607,-0.64882 0.17303,-0.32988 0.48952,-0.95662 6.4511,-12.74618 24.47691,-3.62294 18.02581,9.12323 l 0,0 c -0.42225,0.83292 -0.21237,0.42375 -0.62929,1.2277 -0.63294,1.20424 -1.27857,2.40191 -1.9563,3.58166 -0.67835,1.17978 -1.36963,2.35214 -2.08809,3.50804 -0.72006,1.15605 -1.45303,2.30408 -2.2134,3.43414 -0.75223,1.11639 -1.51487,2.22586 -2.30522,3.31573 -0.76208,1.04948 -1.53446,2.09146 -2.32162,3.12229 -0.78327,1.02142 -1.56571,2.04373 -2.37629,3.04375 -0.84708,1.04089 -1.70552,2.07278 -2.5986,3.07473 -0.92215,1.02889 -1.86123,2.04284 -2.83482,3.02349 -0.95296,0.95218 -1.91764,1.89282 -2.91296,2.80091 -0.99695,0.9075 -2.0057,1.80226 -3.04488,2.66141 -1.04457,0.86161 -2.10107,1.70893 -3.18508,2.52067 -1.172,0.87519 -2.3561,1.73483 -3.58058,2.53574 -1.32217,0.86089 -2.66266,1.6936 -4.04528,2.4548 -1.3686,0.75726 -2.7459,1.49919 -4.14907,2.19089 -1.45473,0.71945 -2.92088,1.41564 -4.40528,2.07205 -1.56822,0.69033 -3.14633,1.35921 -4.74615,1.9734 -1.67556,0.63753 -3.36387,1.24093 -5.07129,1.78825 -1.71892,0.55053 -3.4447,1.07988 -5.18516,1.55867 -1.72323,0.47451 -3.44928,0.93924 -5.18562,1.36372 -1.71223,0.42357 -3.42892,0.82861 -5.14849,1.22132 -1.66722,0.3829 -3.33503,0.76336 -5.00376,1.13965 -1.71532,0.38309 -3.43237,0.75886 -5.15502,1.10773 -1.72006,0.34316 -3.44256,0.67387 -5.16952,0.98065 -1.69371,0.30055 -3.38914,0.59077 -5.08842,0.85828 -1.65403,0.26672 -3.30876,0.52926 -4.96438,0.78584 -1.65492,0.25629 -3.31009,0.5109 -4.96657,0.75695 -1.66644,0.24839 -3.33408,0.48874 -5.00271,0.72198 -1.65239,0.23118 -3.30546,0.45771 -4.95945,0.67712 -1.67838,0.22223 -3.35678,0.44473 -5.0385,0.64057 -1.65433,0.19455 -3.31018,0.37554 -4.96606,0.55638 -1.63387,0.17999 -3.26828,0.35507 -4.90318,0.52548 -1.66837,0.16741 -3.33682,0.33527 -5.00835,0.46844 -1.66635,0.1311 -3.33334,0.25438 -5.00204,0.35203 -1.68339,0.0965 -3.36728,0.18555 -5.05259,0.2414 -1.73205,0.0512 -3.46488,0.0806 -5.1977,0.0529 -1.66761,-0.0268 -3.33498,-0.0685 -5.00109,-0.14612 -1.66231,-0.0777 -3.32423,-0.1652 -4.98396,-0.28752 -1.62669,-0.1239 -3.25207,-0.26373 -4.87622,-0.41762 -1.6379,-0.15646 -3.27482,-0.32409 -4.90852,-0.52017 -1.63645,-0.19922 -3.27336,-0.39754 -4.90309,-0.64704 -1.58897,-0.24357 -3.17772,-0.48936 -4.76079,-0.76924 -1.60977,-0.2865 -3.21515,-0.59736 -4.81214,-0.94873 -1.53798,-0.33995 -3.07472,-0.6866 -4.60013,-1.07986 -1.50794,-0.38622 -3.01199,-0.7881 -4.5028,-1.23658 -1.37616,-0.4115 -2.74907,-0.83381 -4.11413,-1.28092 -1.32275,-0.434 -2.6442,-0.87263 -3.95306,-1.34722 -1.24713,-0.45182 -2.49083,-0.91326 -3.72605,-1.39684 -1.19666,-0.47244 -2.38917,-0.95542 -3.57172,-1.46229 -1.16186,-0.50038 -2.31844,-1.01326 -3.45991,-1.55884 -1.04485,-0.49868 -2.08544,-1.00623 -3.11589,-1.53415 -0.97722,-0.49144 -1.94985,-0.99178 -2.91986,-1.49731 -0.92318,-0.48355 -1.84669,-0.96663 -2.75784,-1.47266 -0.85392,-0.47169 -1.7063,-0.94624 -2.54836,-1.43891 -0.7742,-0.45569 -1.54471,-0.91756 -2.30573,-1.39504 -0.7202,-0.45372 -1.4394,-0.90934 -2.14113,-1.39141 -0.69544,-0.47816 -1.3823,-0.96892 -2.04805,-1.48794 -0.50799,-0.39566 -1.01536,-0.79232 -1.51005,-1.2046 -0.63043,-0.52701 -1.25238,-1.06704 -1.80072,-1.6812 -9.57093,-10.60562 5.42768,-24.14095 14.9986,-13.53533 z"
       inkscape:connector-curvature="0" />
    <path
       style="fill:#5fbcd3;fill-opacity:1;stroke:none"
       d="m 384.96966,423.85722 c -22.17464,-0.45316 -43.42772,9.12267 -61.3352,21.52888 -20.92907,15.55625 -36.92698,39.00545 -40.94275,64.997 -1.8901,9.42947 0.26295,18.8555 1.79934,28.00017 1.01921,7.30486 10.30679,8.42893 15.47165,11.84637 23.55484,11.3927 50.35644,12.52546 75.97119,9.82384 25.73374,-2.84985 52.29244,-6.0023 75.86367,-17.06139 13.83912,-7.69353 25.25074,-20.20293 31.3463,-34.78713 -0.34995,-4.28813 -3.08625,-8.25338 -2.77792,-12.75318 -3.57255,-30.91435 -28.21462,-55.7408 -56.50541,-66.29126 -12.22627,-5.36238 -25.75438,-5.47447 -38.89087,-5.3033 z"
       id="path3009"
       inkscape:connector-curvature="0" />
    <path
       style="fill:#666666;fill-opacity:1;stroke:none"
       id="path3003"
       d="m 288.79517,674.78041 c -0.20028,0.0848 -0.40101,0.16861 -0.60069,0.25482 -0.0669,0.0278 -0.11252,0.054 -0.24596,0.11966 -0.12315,0.058 -0.41024,0.21644 -0.44768,0.2366 -0.14803,0.0798 -0.29308,0.16521 -0.43362,0.25686 -0.24646,0.17297 -0.48738,0.35402 -0.73074,0.53139 -0.47231,0.34149 -0.9415,0.68724 -1.40956,1.03454 -0.52397,0.38963 -1.04869,0.7782 -1.56856,1.1733 -0.5083,0.38821 -1.00888,0.78634 -1.50736,1.18704 -0.64704,0.5162 -1.29484,1.03146 -1.94654,1.54177 -0.6737,0.52666 -1.34817,1.05235 -2.02188,1.57899 -0.73512,0.57044 -1.46526,1.14723 -2.20067,1.71729 -0.75849,0.59225 -1.52042,1.18007 -2.28264,1.76749 -0.78698,0.60596 -1.57628,1.20889 -2.36421,1.81362 -0.84664,0.64197 -1.69343,1.28379 -2.54272,1.92227 -0.8638,0.64778 -1.72561,1.29819 -2.58845,1.94725 -0.86348,0.65151 -1.72316,1.30801 -2.58343,1.96375 -0.8882,0.68271 -1.77877,1.36233 -2.66974,2.04141 -0.94391,0.71755 -1.89177,1.4298 -2.84447,2.13563 -1.00882,0.74336 -2.02124,1.48182 -3.0427,2.20772 -1.02143,0.72602 -2.04729,1.44585 -3.07669,2.16053 -1.02468,0.71877 -2.05222,1.4334 -3.08368,2.14242 -0.69015,0.47404 -0.34662,0.23778 -1.03062,0.70877 -11.76616,8.10179 -23.22382,-8.53809 -11.45765,-16.63987 l 0,0 c 0.70166,-0.48313 0.35325,-0.24353 1.04522,-0.71882 1.00592,-0.69122 2.00746,-1.38874 3.00686,-2.08936 0.97075,-0.6736 1.93774,-1.35266 2.90087,-2.0371 0.91168,-0.64647 1.81317,-1.30713 2.71363,-1.96909 0.87871,-0.65065 1.75254,-1.30775 2.62308,-1.96928 0.89068,-0.67876 1.78077,-1.35831 2.66873,-2.04063 0.89444,-0.68173 1.78827,-1.36426 2.68612,-2.04151 0.86503,-0.65063 1.72894,-1.30276 2.59493,-1.95213 0.79514,-0.59741 1.58741,-1.19868 2.38038,-1.79897 0.77758,-0.59675 1.5565,-1.19176 2.33313,-1.78973 0.74791,-0.57623 1.49532,-1.15313 2.23951,-1.73416 0.71311,-0.55232 1.4203,-1.11218 2.13319,-1.66477 0.67107,-0.52454 1.34284,-1.04816 2.01388,-1.57273 0.5835,-0.45612 1.16238,-0.91814 1.7418,-1.37942 0.64407,-0.51738 1.29135,-1.03086 1.94851,-1.53158 0.57913,-0.43909 1.1621,-0.87303 1.74567,-1.30619 0.51442,-0.38151 1.03011,-0.7613 1.54884,-1.13693 0.53989,-0.3932 1.07551,-0.79305 1.63736,-1.15489 0.50115,-0.3219 1.00902,-0.63308 1.5312,-0.91997 0.39846,-0.22109 0.79943,-0.43781 1.2069,-0.64197 0.36682,-0.18348 0.7347,-0.36518 1.10951,-0.53195 0.14541,-0.0641 0.85929,-0.37486 0.66571,-0.28385 13.05445,-5.80198 21.25968,12.6598 8.20523,18.46178 z"
       inkscape:connector-curvature="0" />
    <path
       inkscape:connector-curvature="0"
       d="m 517.89426,651.56345 c 0.21105,0.0525 0.4224,0.10403 0.63307,0.15805 0.0704,0.017 0.11957,0.0358 0.26161,0.0798 0.13069,0.0381 0.43897,0.14983 0.4791,0.16391 0.15866,0.0557 0.31525,0.11749 0.46837,0.18611 0.27041,0.13242 0.53661,0.27369 0.80465,0.41095 0.51978,0.26367 1.03714,0.53204 1.55363,0.80211 0.57831,0.30316 1.1572,0.60517 1.73232,0.91438 0.56261,0.30421 1.11914,0.61942 1.674,0.93749 0.71962,0.409 1.43983,0.81696 2.16313,1.21941 0.74758,0.41518 1.49576,0.82927 2.24335,1.24443 0.81507,0.44884 1.62621,0.90473 2.44151,1.35316 0.84156,0.46674 1.68583,0.92857 2.53031,1.38996 0.87184,0.47584 1.7455,0.94833 2.61808,1.42281 0.93638,0.50211 1.87289,1.00405 2.81134,1.5023 0.95424,0.50517 1.90692,1.01325 2.86041,1.51984 0.9545,0.50891 1.90603,1.02334 2.85802,1.53693 0.98379,0.53587 1.96943,1.06832 2.95539,1.60017 1.04424,0.5616 2.09156,1.11735 3.14266,1.666 1.11239,0.57698 2.22757,1.14855 3.34972,1.7063 1.12214,0.55788 2.24769,1.10896 3.37593,1.65439 1.12422,0.55021 2.25062,1.09589 3.38001,1.63541 0.75562,0.36063 0.37946,0.18083 1.12853,0.53941 12.88549,6.16812 21.60852,-12.05473 8.72303,-18.22284 l 0,0 c -0.76841,-0.36782 -0.3869,-0.18547 -1.14452,-0.54706 -1.10139,-0.52592 -2.19944,-1.05875 -3.29586,-1.59497 -1.0639,-0.51401 -2.12494,-1.03399 -3.18301,-1.55988 -1.00133,-0.49642 -1.9948,-1.00844 -2.98746,-1.5219 -0.96942,-0.50569 -1.93502,-1.0185 -2.89805,-1.53621 -0.98562,-0.53158 -1.97078,-1.06404 -2.95427,-1.59956 -0.9898,-0.53393 -1.97911,-1.06875 -2.97158,-1.59772 -0.9559,-0.5078 -1.91092,-1.01725 -2.86757,-1.52365 -0.87856,-0.46613 -1.75489,-0.93652 -2.63176,-1.40582 -0.86112,-0.46821 -1.72329,-0.9345 -2.58365,-1.40406 -0.82861,-0.45257 -1.65683,-0.90588 -2.48251,-1.36377 -0.79051,-0.43438 -1.57634,-0.87712 -2.36667,-1.3118 -0.74465,-0.41349 -1.48985,-0.82597 -2.23447,-1.23949 -0.64749,-0.35956 -1.29132,-0.72567 -1.93558,-1.09097 -0.71686,-0.41063 -1.43629,-0.8169 -2.16348,-1.20903 -0.64051,-0.34343 -1.28401,-0.68116 -1.92799,-1.01803 -0.56761,-0.29664 -1.13621,-0.59138 -1.70716,-0.88153 -0.5946,-0.30422 -1.18601,-0.61566 -1.79741,-0.88547 -0.54521,-0.23983 -1.09539,-0.46801 -1.65591,-0.66998 -0.42806,-0.15625 -0.85792,-0.3078 -1.29224,-0.44593 -0.39094,-0.12405 -0.78265,-0.24616 -1.17888,-0.35245 -0.15363,-0.0406 -0.90723,-0.2363 -0.70183,-0.17658 -13.79943,-3.69557 -19.02575,15.81977 -5.22631,19.51534 z"
       id="path3005"
       style="fill:#666666;fill-opacity:1;stroke:none" />
    <path
       style="fill:#808080;fill-opacity:1;stroke:none"
       id="path2987"
       d="m 258.8269,526.8308 c -0.37486,0.0886 -0.75232,0.16563 -1.12868,0.24753 -0.29621,0.0695 -0.59169,0.14214 -0.88723,0.21445 -0.40421,0.10129 -0.80648,0.20997 -1.20886,0.31821 -0.53028,0.14445 -1.06046,0.28888 -1.58952,0.43771 -0.61287,0.17053 -1.22158,0.35534 -1.83149,0.53602 -0.72154,0.21253 -1.44162,0.42989 -2.16176,0.6471 -0.75141,0.22285 -1.50161,0.44972 -2.2479,0.6892 -0.7435,0.23452 -1.47527,0.5044 -2.20663,0.77391 -0.83522,0.31262 -1.66613,0.63658 -2.49305,0.97049 -0.9085,0.3671 -1.81624,0.73613 -2.71734,1.12107 -0.81103,0.35702 -1.60981,0.74177 -2.40024,1.14215 -0.87815,0.43641 -1.73565,0.91212 -2.58828,1.39597 -0.89681,0.51137 -1.77799,1.04926 -2.65454,1.59441 -0.93347,0.58093 -1.85334,1.18324 -2.76859,1.79235 -0.94169,0.62762 -1.86333,1.28446 -2.78286,1.94389 -0.96471,0.68705 -1.91249,1.39705 -2.85362,2.11589 -0.8901,0.67433 -1.74659,1.39084 -2.59391,2.11767 -0.84688,0.72683 -1.65424,1.49722 -2.4533,2.27573 -0.8418,0.82058 -1.65142,1.67307 -2.44933,2.53609 -0.80943,0.88843 -1.59948,1.79448 -2.36837,2.7182 -0.74951,0.89658 -1.45479,1.82832 -2.1418,2.77321 -0.72251,1.00449 -1.42284,2.02473 -2.105,3.05699 -0.64535,0.96254 -1.23369,1.9607 -1.81078,2.96503 -0.5725,1.00884 -1.12126,2.03087 -1.63902,3.06884 -0.45558,0.90685 -0.85763,1.83925 -1.22665,2.78425 -0.35759,0.92601 -0.66995,1.86806 -0.95818,2.81763 -0.26072,0.87138 -0.46364,1.75812 -0.65363,2.64711 -0.16799,0.75463 -0.26409,1.52181 -0.34142,2.29014 -0.0749,0.73967 -0.10021,1.48297 -0.0968,2.22606 0.008,0.78568 0.0487,1.57069 0.11739,2.3533 0.0441,0.52361 0.12541,1.04421 0.27291,1.54894 0.21703,0.7691 0.48239,1.52356 0.75337,2.27499 0.30833,0.85106 0.6546,1.68745 1.01506,2.51752 0.35899,0.82352 0.75405,1.63042 1.16243,2.43035 0.38824,0.76102 0.8088,1.50455 1.25415,2.23342 0.42927,0.69773 0.89221,1.37421 1.38134,2.03117 0.49076,0.6665 1.03785,1.28863 1.59586,1.899 0.65797,0.71519 1.34593,1.40179 2.0529,2.0683 0.75398,0.69704 1.53943,1.35869 2.33838,2.0033 0.87893,0.71132 1.78799,1.38358 2.7107,2.03664 1.01202,0.70755 2.04273,1.38776 3.08522,2.04942 1.10191,0.69681 2.22989,1.35065 3.36254,1.99579 1.1971,0.68136 2.41782,1.31968 3.64439,1.94594 1.31828,0.67256 2.65144,1.3151 3.98926,1.94765 1.37662,0.65018 2.76728,1.27004 4.16302,1.87788 1.44199,0.62947 2.89977,1.22149 4.36275,1.80014 1.55837,0.60884 3.13039,1.18178 4.70467,1.74788 1.64947,0.59518 3.3094,1.16047 4.97248,1.71624 1.68358,0.5674 3.38056,1.09326 5.08181,1.60477 1.69544,0.51875 3.40665,0.98174 5.12425,1.42056 1.7862,0.45353 3.58187,0.86835 5.38116,1.26633 1.84015,0.40945 3.68819,0.78143 5.53851,1.14155 1.87176,0.35811 3.74834,0.69007 5.62797,1.00401 1.90001,0.32137 3.80699,0.59772 5.71619,0.85791 2.01629,0.2731 4.03464,0.53039 6.05447,0.77579 2.07295,0.24213 4.14806,0.46521 6.22335,0.68608 2.12354,0.22929 4.24885,0.44099 6.37487,0.6458 2.11634,0.20979 4.23517,0.39175 6.35547,0.55606 2.13603,0.16879 4.27465,0.29843 6.41453,0.40585 2.21442,0.10603 4.43052,0.1697 6.64647,0.23323 2.2472,0.0704 4.49526,0.10442 6.74332,0.13142 2.28163,0.0285 4.56341,0.0432 6.84521,0.0476 2.27249,0.007 4.5449,-0.008 6.81725,-0.0314 2.28984,-0.0278 4.57938,-0.0756 6.86869,-0.1315 2.31291,-0.0537 4.6248,-0.14247 6.93673,-0.22697 2.31448,-0.0862 4.62798,-0.19554 6.94158,-0.30227 2.31985,-0.10237 4.63858,-0.22773 6.95722,-0.35393 2.33353,-0.12322 4.66623,-0.26127 6.99901,-0.3977 2.30544,-0.13839 4.61032,-0.28582 6.91441,-0.4451 2.30996,-0.1578 4.61794,-0.34248 6.92589,-0.52681 2.3132,-0.18743 4.62514,-0.39009 6.93648,-0.59913 2.32695,-0.20813 4.65165,-0.44003 6.97633,-0.67167 2.31976,-0.23515 4.63872,-0.47806 6.95652,-0.73182 2.3257,-0.25278 4.64946,-0.52282 6.97359,-0.78952 2.29619,-0.26977 4.59277,-0.53623 6.8873,-0.81977 2.28451,-0.28072 4.56694,-0.57766 6.84859,-0.88058 2.28273,-0.29987 4.56464,-0.60546 6.84504,-0.92261 2.27128,-0.31221 4.5408,-0.63678 6.80944,-0.96759 2.27827,-0.32927 4.55407,-0.67526 6.83008,-1.01968 2.28062,-0.34314 4.5598,-0.69567 6.83835,-1.05227 2.26513,-0.35251 4.52836,-0.71721 6.79017,-1.09039 2.25058,-0.36686 4.495,-0.76977 6.73873,-1.17597 2.24547,-0.40721 4.48544,-0.84366 6.72424,-1.28582 2.2336,-0.44401 4.4622,-0.91246 6.68952,-1.38684 2.22784,-0.47521 4.44885,-0.98162 6.66962,-1.48859 2.19959,-0.5027 4.39446,-1.02537 6.58515,-1.56547 2.14791,-0.52961 4.28547,-1.09967 6.41829,-1.68677 2.08667,-0.57347 4.16074,-1.19082 6.22754,-1.83183 2.03571,-0.63432 4.05735,-1.31233 6.07317,-2.0069 1.96401,-0.67792 3.91204,-1.40051 5.8532,-2.14095 1.87662,-0.71629 3.736,-1.47603 5.58455,-2.26159 1.78688,-0.7634 3.54583,-1.5894 5.29779,-2.42917 1.70351,-0.8214 3.37803,-1.70063 5.03965,-2.6032 1.63238,-0.89246 3.23508,-1.8372 4.82567,-2.80171 1.53296,-0.92257 3.03124,-1.9004 4.50886,-2.90874 1.43503,-0.98088 2.83718,-2.00842 4.21804,-3.06387 1.32218,-1.00669 2.60631,-2.06119 3.87268,-3.13678 1.19405,-1.00294 2.33344,-2.06734 3.4576,-3.1472 1.0908,-1.05331 2.14382,-2.14449 3.17599,-3.25501 1.00146,-1.07365 1.95389,-2.19133 2.892,-3.32029 0.90508,-1.08785 1.76828,-2.20913 2.61414,-3.3433 0.81152,-1.09108 1.58235,-2.21121 2.3331,-3.34469 0.70184,-1.06418 1.3616,-2.15491 1.99315,-3.262 0.59786,-1.06152 1.14333,-2.15137 1.67491,-3.24722 0.54283,-1.12003 1.04342,-2.25983 1.534,-3.40349 0.44878,-1.0413 0.84472,-2.10378 1.21954,-3.17353 0.36707,-1.02775 0.67394,-2.07499 0.96555,-3.12612 0.26877,-0.94449 0.47288,-1.90462 0.65072,-2.86973 0.16049,-0.91486 0.27188,-1.837 0.35271,-2.762 0.0895,-1.00855 0.13782,-2.02033 0.1599,-3.03245 0.0199,-0.94489 -0.0176,-1.88943 -0.0758,-2.8323 -0.0652,-0.98373 -0.1644,-1.9649 -0.29339,-2.94222 -0.12958,-1.01393 -0.30442,-2.02127 -0.49178,-3.02589 -0.17102,-0.9353 -0.3922,-1.85979 -0.63619,-2.77837 -0.23296,-0.88906 -0.54596,-1.75348 -0.85959,-2.61642 -0.33936,-0.92668 -0.72881,-1.83323 -1.13741,-2.7311 -0.44949,-0.97955 -0.9255,-1.94678 -1.42423,-2.90215 -0.48353,-0.9288 -1.01569,-1.83069 -1.55827,-2.72584 -0.56455,-0.92844 -1.16274,-1.83562 -1.77298,-2.73447 -0.61294,-0.90058 -1.25725,-1.77904 -1.91288,-2.64882 -0.64513,-0.85907 -1.32516,-1.69058 -2.01753,-2.51173 -0.69733,-0.81741 -1.43212,-1.60172 -2.17254,-2.37994 -0.78835,-0.82666 -1.60149,-1.62899 -2.42323,-2.42228 -0.83288,-0.80245 -1.68854,-1.5806 -2.55217,-2.34966 -0.85412,-0.76059 -1.72887,-1.49731 -2.61846,-2.21594 -0.90522,-0.72848 -1.83246,-1.42881 -2.76562,-2.12092 -0.90772,-0.66458 -1.83309,-1.30467 -2.76844,-1.92962 -0.94414,-0.62298 -1.90682,-1.21722 -2.87489,-1.80208 -0.99223,-0.59906 -1.99954,-1.17234 -3.01191,-1.73648 -1.00797,-0.56033 -2.02887,-1.09696 -3.05531,-1.62254 -0.98716,-0.5113 -1.9939,-0.98257 -3.00635,-1.44114 -1.04304,-0.47234 -2.10042,-0.91185 -3.16224,-1.33993 -1.07319,-0.43385 -2.15914,-0.83482 -3.2506,-1.22002 -1.11991,-0.39062 -2.24803,-0.75683 -3.38177,-1.10507 -1.10366,-0.33865 -2.21987,-0.63232 -3.3392,-0.91377 -1.13208,-0.28109 -2.27286,-0.52447 -3.41555,-0.75785 -1.13169,-0.23002 -2.26923,-0.42888 -3.40901,-0.61401 -1.05182,-0.17044 -2.11019,-0.29402 -3.17028,-0.39904 -1.07913,-0.11125 -2.16165,-0.1815 -3.24516,-0.2313 -1.07008,-0.0463 -2.14136,-0.0464 -3.21218,-0.0383 -1.08703,0.0132 -2.17338,0.0553 -3.25873,0.11553 -1.18511,0.0649 -2.36826,0.15952 -3.55135,0.25322 -1.25684,0.0955 -2.51243,0.20605 -3.76821,0.31425 -1.22839,0.10348 -2.45387,0.23643 -3.67931,0.3694 -14.20235,1.54107 -16.38175,-18.54409 -2.1794,-20.08515 l 0,0 c 1.37365,-0.14904 2.74752,-0.29645 4.12443,-0.41272 1.30226,-0.11221 2.60436,-0.22656 3.90769,-0.32579 1.34653,-0.10661 2.69322,-0.21267 4.04207,-0.28607 1.40611,-0.0762 2.81343,-0.13119 4.22169,-0.14523 1.43379,-0.009 2.8681,-0.005 4.30075,0.06 1.43899,0.0686 2.87679,0.16195 4.31009,0.30954 1.47357,0.14861 2.94472,0.32285 4.40677,0.56151 1.40676,0.22977 2.8109,0.47573 4.20768,0.76067 1.43922,0.2946 2.8756,0.60386 4.30109,0.95977 1.45882,0.36775 2.91281,0.75462 4.35115,1.19675 1.39804,0.43124 2.79004,0.88187 4.17081,1.3659 1.36885,0.48459 2.73109,0.98807 4.07732,1.53281 1.32498,0.53516 2.64412,1.08523 3.94567,1.67548 1.30577,0.59276 2.60357,1.20317 3.87771,1.86174 1.23563,0.63389 2.46505,1.28013 3.67842,1.95583 1.21954,0.68033 2.43277,1.37208 3.62805,2.09441 1.23274,0.74611 2.45846,1.50437 3.65915,2.30136 1.20586,0.80843 2.40067,1.63368 3.56974,2.4947 1.16028,0.86159 2.31256,1.73424 3.43746,2.6418 1.13604,0.92114 2.25622,1.86167 3.34768,2.83546 1.06557,0.9502 2.12117,1.91173 3.14866,2.90319 1.02737,0.9933 2.04379,1.99809 3.02921,3.03325 1.01884,1.07283 2.02704,2.15662 2.98331,3.28609 0.92757,1.10289 1.83799,2.22022 2.70339,3.37291 0.85517,1.13707 1.69541,2.28556 2.49469,3.46287 0.80425,1.18758 1.59237,2.38629 2.33603,3.613 0.76655,1.26865 1.51487,2.54876 2.19799,3.86473 0.66311,1.27885 1.30293,2.56988 1.9001,3.88101 0.62221,1.37639 1.21392,2.76667 1.73012,4.18681 0.51848,1.4331 1.01698,2.87468 1.40132,4.35064 0.36822,1.40324 0.70356,2.81505 0.96462,4.24262 0.25313,1.36889 0.48847,2.74147 0.66431,4.12273 0.1834,1.43699 0.33448,2.87821 0.42393,4.32441 0.0885,1.50797 0.14235,3.01849 0.10603,4.52929 -0.0375,1.45937 -0.10399,2.91833 -0.23699,4.37247 -0.14424,1.55259 -0.33099,3.10144 -0.61204,4.63592 -0.2893,1.54003 -0.62048,3.07218 -1.04743,4.58068 -0.41378,1.48439 -0.8538,2.96179 -1.37066,4.41408 -0.52801,1.49757 -1.08558,2.98491 -1.71483,4.44335 -0.61567,1.43228 -1.24507,2.85911 -1.92649,4.26158 -0.73188,1.50401 -1.48555,2.99828 -2.31205,4.453 -0.85517,1.49058 -1.74325,2.96216 -2.69233,4.39521 -0.95907,1.44366 -1.94232,2.87128 -2.97841,4.26108 -1.05907,1.41757 -2.14032,2.81864 -3.27274,4.17873 -1.17914,1.41592 -2.37694,2.81694 -3.63471,4.1641 -1.29248,1.38699 -2.60939,2.75137 -3.97528,4.06658 -1.42233,1.36395 -2.86629,2.70577 -4.37463,3.97492 -1.53342,1.30028 -3.08823,2.57523 -4.6882,3.79325 -1.67047,1.27318 -3.36405,2.5161 -5.09948,3.69974 -1.77532,1.20788 -3.57291,2.38294 -5.41313,3.49018 -1.86502,1.12961 -3.74455,2.23557 -5.65894,3.27996 -1.96097,1.06361 -3.93724,2.09951 -5.94781,3.06684 -2.02679,0.97063 -4.06245,1.92357 -6.12997,2.80499 -2.08033,0.88292 -4.17238,1.73798 -6.28411,2.54337 -2.14629,0.81799 -4.30015,1.61636 -6.47166,2.36529 -2.21407,0.76227 -4.43451,1.50642 -6.67047,2.20229 -2.27333,0.70433 -4.55447,1.38324 -6.84952,2.01374 -2.30728,0.63461 -4.61962,1.25104 -6.94318,1.82364 -2.30334,0.56756 -4.61092,1.11743 -6.92359,1.6458 -2.3166,0.52884 -4.63354,1.05662 -6.95755,1.55211 -2.3252,0.49521 -4.6518,0.98389 -6.9836,1.4472 -2.34378,0.46286 -4.68888,0.91931 -7.03966,1.34551 -2.34715,0.4249 -4.69513,0.84575 -7.0494,1.22971 -2.31663,0.38209 -4.63464,0.75582 -6.95465,1.11683 -2.31218,0.36185 -4.62502,0.71957 -6.93929,1.06781 -2.31193,0.34986 -4.62365,0.70118 -6.93786,1.03569 -2.31272,0.33722 -4.62635,0.66808 -6.94175,0.98644 -2.32171,0.32285 -4.64493,0.63417 -6.96902,0.93946 -2.34234,0.31095 -4.6855,0.61567 -7.03077,0.90392 -2.35231,0.29043 -4.70661,0.56422 -7.06062,0.84042 -2.35918,0.27072 -4.71799,0.54472 -7.07876,0.8013 -2.38275,0.26072 -4.76666,0.51069 -7.15144,0.7522 -2.38597,0.23775 -4.77199,0.4755 -7.16027,0.68916 -2.38159,0.21527 -4.76378,0.42415 -7.14729,0.61707 -2.3799,0.19007 -4.75986,0.38018 -7.14182,0.5429 -2.37508,0.16401 -4.75093,0.31625 -7.1274,0.45868 -2.35995,0.13802 -4.71982,0.27759 -7.08053,0.4023 -2.3743,0.12923 -4.7487,0.25738 -7.12424,0.36233 -2.37795,0.1097 -4.75583,0.22184 -7.1347,0.31026 -2.39382,0.0875 -4.7876,0.17893 -7.18244,0.23445 -2.38413,0.058 -4.7685,0.10782 -7.15318,0.13643 -2.35461,0.0242 -4.70929,0.0394 -7.06403,0.0325 -2.34975,-0.005 -4.69948,-0.0195 -7.04906,-0.049 -2.36011,-0.0284 -4.72021,-0.0646 -7.07941,-0.13826 -2.36118,-0.0677 -4.72251,-0.13646 -7.08201,-0.25042 -2.32282,-0.11699 -4.6443,-0.25788 -6.96296,-0.44091 -2.24518,-0.17443 -4.48889,-0.36661 -6.72992,-0.58863 -2.193,-0.2113 -4.38526,-0.42978 -6.57571,-0.66616 -2.17504,-0.23153 -4.34989,-0.46537 -6.52235,-0.72016 -2.11743,-0.25739 -4.23334,-0.52705 -6.34706,-0.81352 -2.11021,-0.28795 -4.2179,-0.59436 -6.31806,-0.94924 -2.0563,-0.34415 -4.10948,-0.70683 -6.15707,-1.09973 -2.01947,-0.3933 -4.03634,-0.80008 -6.04477,-1.24686 -2.01343,-0.44614 -4.02293,-0.91057 -6.02163,-1.41912 -1.98944,-0.50962 -3.97176,-1.04647 -5.93614,-1.64642 -1.89721,-0.5709 -3.78953,-1.15821 -5.66728,-1.79064 -1.80795,-0.6045 -3.61243,-1.21948 -5.40568,-1.86652 -1.77416,-0.63835 -3.5455,-1.28508 -5.30112,-1.97312 -1.67618,-0.66372 -3.34633,-1.34291 -4.99863,-2.06442 -1.58606,-0.69147 -3.16646,-1.39628 -4.73081,-2.13579 -1.52419,-0.72116 -3.04287,-1.45413 -4.54476,-2.22089 -1.49937,-0.76684 -2.99107,-1.54928 -4.45435,-2.38343 -1.41563,-0.80724 -2.824,-1.62779 -4.20049,-2.50063 -1.32928,-0.84663 -2.64561,-1.71374 -3.93485,-2.62049 -1.27063,-0.90324 -2.52366,-1.83128 -3.7348,-2.81345 -1.20173,-0.97571 -2.38509,-1.97477 -3.51469,-3.03391 -1.07469,-1.02058 -2.12508,-2.06697 -3.12391,-3.16246 -1.01586,-1.12435 -2.00772,-2.27219 -2.90277,-3.49642 -0.83975,-1.14686 -1.64888,-2.31652 -2.38627,-3.53246 -0.70031,-1.1595 -1.37137,-2.33644 -1.98427,-3.54487 -0.59708,-1.17537 -1.17445,-2.36097 -1.69887,-3.57086 -0.52869,-1.22444 -1.03636,-2.45818 -1.48803,-3.71343 -0.48797,-1.36263 -0.95677,-2.73387 -1.32196,-4.13538 -0.39152,-1.59174 -0.70118,-3.20292 -0.82356,-4.8403 -0.10937,-1.34916 -0.18458,-2.70133 -0.18707,-4.05539 0.006,-1.43324 0.0544,-2.86667 0.20542,-4.29286 0.15825,-1.49278 0.36159,-2.9815 0.68504,-4.44866 0.31226,-1.44417 0.65235,-2.88297 1.08239,-4.29733 0.44739,-1.45912 0.93028,-2.90738 1.48616,-4.32924 0.59513,-1.50044 1.23268,-2.98452 1.96031,-4.4262 0.69473,-1.38125 1.42006,-2.74681 2.18769,-4.08911 0.78872,-1.36959 1.59773,-2.72778 2.47629,-4.04223 0.85115,-1.28406 1.72158,-2.55539 2.62408,-3.80401 0.95014,-1.30152 1.92501,-2.58518 2.95966,-3.82117 0.99229,-1.18631 2.00557,-2.35514 3.05121,-3.49489 1.0378,-1.12018 2.09132,-2.22613 3.1859,-3.29129 1.10609,-1.07538 2.22712,-2.13585 3.39925,-3.1396 1.13599,-0.97221 2.28578,-1.92867 3.47741,-2.83245 1.10287,-0.84181 2.21376,-1.67299 3.34359,-2.47843 1.11089,-0.79604 2.22523,-1.58761 3.3632,-2.34474 1.08878,-0.72405 2.1833,-1.43964 3.29376,-2.13014 1.10807,-0.68836 2.22267,-1.36641 3.35669,-2.0114 1.13954,-0.64538 2.28684,-1.27749 3.45915,-1.86187 1.17541,-0.59047 2.36036,-1.16316 3.5682,-1.68477 1.02369,-0.43586 2.05316,-0.85785 3.08516,-1.27364 1.01841,-0.41029 2.04116,-0.80983 3.07011,-1.19299 1.00283,-0.36883 2.00746,-0.73411 3.02659,-1.05591 0.85499,-0.2732 1.71317,-0.53609 2.57393,-0.79053 0.75206,-0.22675 1.50406,-0.45363 2.25751,-0.67572 0.69862,-0.20686 1.39609,-0.41761 2.09805,-0.61298 0.6032,-0.16968 1.20778,-0.33401 1.81226,-0.499 0.55092,-0.1482 1.10205,-0.29566 1.65581,-0.43298 0.46545,-0.11387 0.9308,-0.22832 1.39853,-0.33253 0.11575,-0.0251 0.80697,-0.18081 0.6128,-0.12833 13.87568,-3.39812 18.68135,16.22504 4.80567,19.62317 z"
       inkscape:connector-curvature="0" />
    <path
       style="fill:#80e5ff;fill-opacity:1;stroke:none"
       d="m 368.84375,420.75 c -0.91088,0.13159 -1.80532,0.65434 -2.53125,1.6875 -0.22367,0.31841 -0.43722,0.64712 -0.65625,0.96875 -0.44652,0.65641 -0.91878,1.32937 -1.34375,2 -0.42888,0.68096 -0.84598,1.36641 -1.25,2.0625 -0.0545,0.0936 -0.10199,0.18748 -0.15625,0.28125 -0.53832,-0.43667 -1.28102,-0.68021 -2.25,-0.65625 -11.57687,2.96484 -22.49181,8.27286 -32.59375,14.59375 -10.3872,6.50789 -19.61568,14.87312 -26.65625,24.9375 -8.13209,10.89298 -14.27171,23.2859 -17.9375,36.375 -0.72218,3.69299 -1.94684,7.4193 -1.9375,11.1875 0.10222,1.26327 0.87458,2.04512 1.84375,2.375 -0.0536,0.0925 -0.10357,0.18816 -0.15625,0.28125 -0.33581,0.59165 -0.64186,1.18462 -0.96875,1.78125 -0.31565,0.57702 -0.63267,1.16717 -0.9375,1.75 -0.28681,0.54915 -0.57106,1.09993 -0.84375,1.65625 -0.22917,0.46401 -0.48503,0.91327 -0.71875,1.375 -0.19027,0.37542 -0.37952,0.74596 -0.5625,1.125 -0.1123,0.22326 -0.22745,0.46631 -0.34375,0.6875 -0.16944,0.3193 -0.3253,0.62403 -0.4375,0.96875 -1.55194,4.74712 5.08446,6.96762 6.75,2.375 0.13945,-0.2632 0.27158,-0.54682 0.40625,-0.8125 0.18206,-0.37645 0.37343,-0.72078 0.5625,-1.09375 0.2449,-0.48373 0.50988,-0.98264 0.75,-1.46875 0.24886,-0.50789 0.48805,-0.99877 0.75,-1.5 0.28377,-0.54242 0.5812,-1.08797 0.875,-1.625 0.30897,-0.56377 0.62009,-1.12843 0.9375,-1.6875 0.31641,-0.55914 0.65648,-1.1135 1,-1.65625 0.36441,-0.57658 0.73771,-1.12608 1.125,-1.6875 0.40516,-0.58434 0.8238,-1.18092 1.25,-1.75 0.43692,-0.58388 0.9175,-1.15096 1.375,-1.71875 0.46836,-0.57747 0.92355,-1.12199 1.40625,-1.6875 0.48757,-0.57262 0.99803,-1.15875 1.5,-1.71875 0.50166,-0.55901 1.0127,-1.1129 1.53125,-1.65625 0.53135,-0.55754 1.08179,-1.07905 1.625,-1.625 0.54548,-0.54726 1.09914,-1.08962 1.65625,-1.625 0.55966,-0.54019 1.11796,-1.09528 1.6875,-1.625 0.56345,-0.52251 1.14375,-1.02152 1.71875,-1.53125 0.57169,-0.51038 1.1606,-1.01023 1.75,-1.5 0.59477,-0.4936 1.20311,-0.96216 1.8125,-1.4375 0.61513,-0.47911 1.21908,-0.97095 1.84375,-1.4375 0.61517,-0.46046 1.24784,-0.89983 1.875,-1.34375 0.62806,-0.44338 1.26734,-0.85375 1.90625,-1.28125 0.63629,-0.42638 1.2583,-0.87286 1.90625,-1.28125 0.65631,-0.41282 1.33444,-0.78983 2,-1.1875 0.66769,-0.39822 1.32528,-0.80133 2,-1.1875 0.67146,-0.38363 1.35255,-0.75435 2.03125,-1.125 0.67923,-0.37009 1.37579,-0.7378 2.0625,-1.09375 0.6881,-0.3571 1.36673,-0.68941 2.0625,-1.03125 0.70048,-0.34425 1.41775,-0.66993 2.125,-1 0.71842,-0.33418 1.43521,-0.67152 2.15625,-1 0.71532,-0.32669 1.43731,-0.65014 2.15625,-0.96875 0.71473,-0.31714 1.43686,-0.6311 2.15625,-0.9375 0.71742,-0.30529 1.43497,-0.6102 2.15625,-0.90625 0.72675,-0.29691 1.45968,-0.58073 2.1875,-0.875 0.72733,-0.29269 1.4598,-0.58324 2.1875,-0.875 0.72393,-0.28931 1.43175,-0.58712 2.15625,-0.875 0.73174,-0.28849 1.45715,-0.55177 2.1875,-0.84375 0.75579,-0.30055 1.50593,-0.64038 2.25,-0.96875 0.77753,-0.33992 1.53724,-0.7173 2.28125,-1.125 0.77762,-0.418 1.5237,-0.89528 2.21875,-1.4375 0.88248,-0.67068 1.57168,-1.53551 2.15625,-2.46875 0.56454,-0.9682 0.88424,-2.05357 1.1875,-3.125 0.24495,-0.89581 0.46509,-1.78588 0.6875,-2.6875 0.2173,-0.88472 0.44598,-1.76985 0.65625,-2.65625 0.20625,-0.87185 0.38906,-1.75279 0.59375,-2.625 0.19991,-0.85829 0.42342,-1.7046 0.625,-2.5625 0.19801,-0.83734 0.39083,-1.66383 0.59375,-2.5 0.19932,-0.82464 0.41517,-1.64673 0.625,-2.46875 0.21059,-0.82068 0.40534,-1.65045 0.625,-2.46875 0.21485,-0.80863 0.45646,-1.60211 0.6875,-2.40625 0.22985,-0.80062 0.44595,-1.60909 0.6875,-2.40625 0.23396,-0.77034 0.49369,-1.54937 0.75,-2.3125 0.25723,-0.75891 0.53724,-1.49747 0.8125,-2.25 0.26884,-0.73586 0.5528,-1.46014 0.84375,-2.1875 0.28683,-0.71714 0.5657,-1.44857 0.875,-2.15625 0.31099,-0.70695 0.64357,-1.39324 0.96875,-2.09375 0.32065,-0.68787 0.66353,-1.38225 1,-2.0625 0.32931,-0.66693 0.64979,-1.31259 1,-1.96875 0.34505,-0.64523 0.72569,-1.30519 1.09375,-1.9375 0.36199,-0.62362 0.74059,-1.23378 1.125,-1.84375 0.38045,-0.59941 0.75683,-1.16313 1.15625,-1.75 0.19896,-0.292 0.42183,-0.58592 0.625,-0.875 2.1778,-3.09943 -0.57986,-6.20728 -3.3125,-5.8125 z"
       id="path3045"
       inkscape:connector-curvature="0" />
    <path
       style="fill:#00aad4;fill-opacity:1;stroke:none"
       id="path2985"
       d="m 263.75307,540.79394 c -0.17061,-0.43246 -0.33118,-0.86887 -0.48522,-1.30749 -0.17866,-0.52478 -0.3472,-1.05301 -0.51126,-1.58252 -0.20363,-0.64464 -0.38586,-1.29576 -0.56533,-1.94746 -0.24631,-0.89929 -0.45292,-1.80861 -0.64878,-2.71999 -0.20992,-0.98359 -0.38894,-1.97331 -0.56172,-2.96398 -0.21094,-1.20408 -0.36886,-2.41637 -0.50798,-3.63056 -0.15069,-1.30121 -0.23621,-2.60849 -0.30785,-3.91603 -0.0703,-1.35217 -0.0976,-2.70592 -0.11342,-4.05965 -0.0315,-1.54411 0.0131,-3.08757 0.0978,-4.6292 0.1039,-1.68875 0.30125,-3.36968 0.51335,-5.04766 0.21503,-1.71364 0.49952,-3.41695 0.81034,-5.11544 0.32929,-1.77791 0.73125,-3.54119 1.16092,-5.29718 0.44743,-1.822 0.97641,-3.62212 1.52952,-5.41437 0.55977,-1.79125 1.17701,-3.56345 1.8145,-5.32828 0.64555,-1.78869 1.35422,-3.55359 2.07819,-5.3117 0.74512,-1.80479 1.55529,-3.58153 2.38003,-5.35101 0.82545,-1.77227 1.69306,-3.52415 2.58503,-5.26372 0.93764,-1.81616 1.93585,-3.59973 2.96288,-5.36653 1.03454,-1.78319 2.13158,-3.52859 3.25452,-5.25708 1.10059,-1.70957 2.2641,-3.37696 3.43114,-5.04141 1.1818,-1.67585 2.40088,-3.32488 3.63633,-4.96143 1.27069,-1.67394 2.59261,-3.30776 3.93719,-4.92263 1.4184,-1.72417 2.92721,-3.36871 4.47803,-4.97364 1.54451,-1.57906 3.1397,-3.10719 4.76029,-4.60765 1.62797,-1.50901 3.3214,-2.94442 5.03578,-4.35362 1.70437,-1.39204 3.45784,-2.72189 5.2322,-4.02294 1.76308,-1.29594 3.58343,-2.51064 5.41341,-3.70923 1.76783,-1.15836 3.56237,-2.27462 5.37212,-3.366 1.85304,-1.11316 3.74659,-2.15624 5.64887,-3.18216 1.88988,-1.02183 3.81209,-1.98119 5.74631,-2.91568 1.93115,-0.93467 3.89145,-1.80693 5.85902,-2.66158 1.98563,-0.86271 3.99365,-1.67203 6.01561,-2.44524 2.02826,-0.76922 4.07742,-1.48115 6.13782,-2.15896 2.05325,-0.67916 4.13093,-1.27951 6.21421,-1.85853 2.05221,-0.56831 4.11936,-1.07952 6.19173,-1.56835 2.1859,-0.5203 4.39503,-0.93135 6.61179,-1.29437 2.14371,-0.33919 4.29935,-0.59538 6.45719,-0.82488 2.10055,-0.2214 4.20759,-0.36978 6.31603,-0.4902 2.04878,-0.11283 4.09964,-0.17438 6.15111,-0.20631 2.04719,-0.0313 4.09416,0.0132 6.14037,0.0721 2.01134,0.055 4.01959,0.17833 6.02664,0.31593 1.99883,0.13551 3.99253,0.33284 5.98321,0.55628 1.98508,0.21276 3.96055,0.50086 5.93153,0.81647 2.00231,0.32018 3.98967,0.72323 5.96946,1.15965 1.99367,0.43834 3.96418,0.97081 5.92324,1.5423 1.87654,0.55087 3.72744,1.18282 5.57333,1.82753 1.80222,0.62714 3.58387,1.31054 5.35574,2.01828 1.76127,0.70553 3.49716,1.47157 5.22226,2.26074 1.70028,0.77998 3.37274,1.61807 5.03362,2.47817 1.63962,0.85128 3.24933,1.75795 4.84679,2.6854 1.57972,0.91938 3.12778,1.89123 4.66304,2.8826 1.52074,0.98423 3.0084,2.01787 4.48285,3.06975 1.47486,1.05543 2.91742,2.15472 4.34111,3.27791 1.4173,1.12453 2.79661,2.2955 4.16235,3.48173 1.37163,1.19989 2.70162,2.44597 4.01818,3.70564 1.32112,1.26333 2.59535,2.57409 3.84997,3.90308 1.24682,1.32669 2.44278,2.69942 3.62007,4.08776 1.12001,1.32379 2.20163,2.67919 3.2698,4.04494 1.06697,1.37305 2.09025,2.77907 3.09964,4.19474 1.01282,1.41899 1.97672,2.87178 2.92079,4.33712 0.94087,1.45965 1.83597,2.94779 2.70617,4.45041 0.8742,1.51041 1.69584,3.04987 2.48735,4.60492 0.78088,1.54276 1.49135,3.1193 2.18007,4.70486 0.68656,1.58381 1.30141,3.19653 1.87826,4.82303 0.53886,1.54995 1.01723,3.11993 1.47805,4.69454 0.45955,1.55261 0.85769,3.12197 1.22371,4.69893 0.36307,1.58245 0.64644,3.18133 0.9108,4.78273 0.25852,1.60391 0.42859,3.21997 0.57931,4.83699 0.14941,1.5567 0.2368,3.11804 0.2944,4.68052 0.0269,1.0563 0.0165,0.52853 0.0312,1.58331 0.21983,17.00098 -23.82319,17.31186 -24.04301,0.31088 l 0,0 c -0.008,-0.68578 -0.002,-0.34196 -0.0177,-1.03143 -0.0383,-1.1108 -0.10116,-2.22065 -0.20754,-3.32723 -0.0965,-1.05286 -0.2016,-2.1056 -0.36289,-3.15085 -0.17925,-1.09559 -0.3683,-2.19014 -0.61269,-3.27343 -0.25931,-1.13104 -0.54662,-2.25538 -0.87597,-3.36825 -0.33471,-1.14859 -0.68162,-2.29396 -1.06902,-3.42606 -0.38712,-1.10204 -0.80365,-2.1932 -1.26638,-3.26598 -0.49294,-1.13881 -0.99943,-2.2721 -1.55733,-3.38092 -0.5928,-1.16964 -1.2109,-2.3261 -1.86701,-3.46164 -0.67643,-1.17274 -1.37567,-2.33217 -2.10821,-3.47085 -0.7381,-1.14795 -1.49156,-2.28622 -2.28412,-3.39751 -0.80242,-1.12681 -1.61499,-2.24659 -2.46192,-3.34056 -0.87277,-1.11725 -1.75615,-2.22638 -2.67119,-3.30951 -0.90031,-1.0637 -1.81393,-2.11627 -2.76686,-3.13347 -0.97287,-1.03272 -1.96096,-2.05134 -2.98601,-3.03263 -1.03722,-0.99378 -2.08427,-1.97762 -3.16349,-2.92591 -1.08195,-0.94119 -2.17423,-1.87081 -3.29642,-2.76395 -1.11572,-0.88362 -2.24931,-1.7446 -3.40542,-2.57484 -1.17177,-0.83748 -2.35401,-1.66056 -3.56259,-2.44434 -1.21582,-0.78667 -2.44175,-1.55792 -3.69282,-2.2876 -1.26281,-0.73475 -2.5353,-1.4531 -3.83149,-2.12765 -1.31303,-0.68155 -2.63523,-1.34571 -3.97948,-1.96392 -1.36705,-0.62697 -2.74267,-1.23555 -4.13846,-1.7962 -1.4414,-0.57729 -2.89112,-1.13388 -4.35765,-1.64458 -1.45578,-0.50871 -2.91373,-1.01262 -4.39322,-1.44908 -1.44429,-0.42394 -2.897,-0.81924 -4.36745,-1.14314 -1.52112,-0.33825 -3.04861,-0.64837 -4.58739,-0.89603 -1.59825,-0.25754 -3.20021,-0.49238 -4.81036,-0.6634 -1.64312,-0.18583 -3.28884,-0.34929 -4.9388,-0.46168 -1.68992,-0.11616 -3.38067,-0.22342 -5.07425,-0.2695 -1.69305,-0.049 -3.38666,-0.0899 -5.08056,-0.0649 -1.71911,0.0254 -3.43759,0.0774 -5.15448,0.17046 -1.71734,0.0967 -3.43356,0.21601 -5.14455,0.39497 -1.71371,0.18075 -3.4258,0.38206 -5.12887,0.64656 -1.66338,0.26825 -3.32041,0.57671 -4.96021,0.96587 -1.76406,0.41495 -3.5236,0.84936 -5.27055,1.33203 -1.72501,0.47872 -3.4462,0.9723 -5.1461,1.53498 -1.70253,0.558 -3.39476,1.14715 -5.07087,1.7805 -1.68534,0.64073 -3.35606,1.31926 -5.01071,2.03569 -1.67197,0.72529 -3.3382,1.4647 -4.97909,2.25838 -1.6132,0.7783 -3.21676,1.57654 -4.79252,2.42868 -1.564,0.8424 -3.12185,1.69711 -4.64605,2.61017 -1.55473,0.93623 -3.09553,1.89516 -4.61387,2.88956 -1.47816,0.967 -2.9508,1.94383 -4.37485,2.9897 -1.41807,1.0372 -2.81853,2.09862 -4.18142,3.20772 -1.35188,1.10856 -2.68774,2.23736 -3.97085,3.42548 -1.29728,1.19729 -2.57113,2.41995 -3.80939,3.6784 -1.13829,1.17234 -2.24309,2.37581 -3.27971,3.63989 -1.10039,1.31953 -2.18194,2.65476 -3.22263,4.02211 -1.06545,1.40999 -2.11636,2.83107 -3.1363,4.27443 -1.00695,1.43607 -2.01419,2.87241 -2.96279,4.34811 -0.90854,1.39444 -1.79429,2.80373 -2.63018,4.2432 -0.81516,1.39756 -1.60493,2.80978 -2.3499,4.24618 -0.7552,1.47063 -1.48876,2.95216 -2.18706,4.45079 -0.67155,1.43855 -1.33282,2.88237 -1.94031,4.34941 -0.59059,1.43146 -1.16982,2.8681 -1.69653,4.32452 -0.51017,1.40961 -1.00532,2.82465 -1.4548,4.25497 -0.4153,1.34033 -0.81473,2.68597 -1.15102,4.04866 -0.31951,1.29332 -0.61557,2.59287 -0.86184,3.9023 -0.23257,1.26181 -0.44647,2.527 -0.60639,3.80038 -0.1433,1.12414 -0.28119,2.24975 -0.3606,3.38052 -0.0593,0.99668 -0.0833,1.99469 -0.0609,2.99317 0.0119,1.0105 0.029,2.02103 0.0795,3.03047 0.0452,0.83989 0.0939,1.68012 0.19059,2.516 0.082,0.73942 0.17743,1.47754 0.3041,2.21077 0.11929,0.6861 0.24094,1.37191 0.38495,2.05334 0.10081,0.47309 0.20408,0.9459 0.33032,1.41299 0.11283,0.41991 0.23281,0.83797 0.36398,1.25252 0.0778,0.24871 0.15701,0.49721 0.23798,0.745 0.0533,0.14468 0.11759,0.32132 0.0919,0.25344 6.31453,15.78633 -16.01071,24.71642 -22.32524,8.93009 z"
       inkscape:connector-curvature="0" />
    <path
       style="fill:#ffdd55;fill-opacity:1;stroke:none"
       d="m 402.3125,651.3125 c -0.37804,0.01 -0.74741,0.01 -1.125,0.0312 -0.3917,0.0231 -0.79727,0.052 -1.1875,0.0937 -0.39494,0.0429 -0.79508,0.0941 -1.1875,0.15625 -0.38846,0.0614 -0.77011,0.14405 -1.15625,0.21875 -0.3891,0.0759 -0.77003,0.1605 -1.15625,0.25 -0.39077,0.0908 -0.80007,0.17706 -1.1875,0.28125 -0.38869,0.10527 -0.77137,0.19394 -1.15625,0.3125 -0.38021,0.11763 -0.74777,0.24809 -1.125,0.375 -0.37755,0.12774 -0.75061,0.26943 -1.125,0.40625 -0.37619,0.1368 -0.75159,0.26199 -1.125,0.40625 -0.37773,0.14595 -0.75024,0.31529 -1.125,0.46875 -0.37648,0.15444 -0.7513,0.30767 -1.125,0.46875 -0.38591,0.16682 -0.77658,0.31935 -1.15625,0.5 -0.38328,0.18155 -0.78086,0.36505 -1.15625,0.5625 -0.37704,0.19798 -0.75728,0.41011 -1.125,0.625 -0.36984,0.21743 -0.70661,0.4478 -1.0625,0.6875 -0.34352,0.23274 -0.69789,0.4716 -1.03125,0.71875 -0.33583,0.25028 -0.676,0.48453 -1,0.75 -0.31816,0.26252 -0.62744,0.54042 -0.9375,0.8125 -0.3108,0.27376 -0.60428,0.56024 -0.90625,0.84375 -0.31208,0.29431 -0.64381,0.59336 -0.9375,0.90625 -0.28952,0.31037 -0.54729,0.60595 -0.8125,0.9375 -0.2526,0.31751 -0.5237,0.66302 -0.75,1 -0.20324,0.30044 -0.39769,0.60108 -0.59375,0.90625 -0.19213,0.30127 -0.37882,0.59974 -0.5625,0.90625 -0.17855,0.29837 -0.36167,0.60268 -0.53125,0.90625 -0.1652,0.29691 -0.32387,0.59869 -0.46875,0.90625 -0.12077,0.25733 -0.25065,0.51235 -0.34375,0.78125 -0.0835,0.25774 -0.14605,0.50889 -0.15625,0.78125 -0.11824,2.52261 3.44426,2.67886 3.5625,0.15625 2e-4,0.0585 0.006,0.1334 0,0.1875 0.0553,-0.13633 0.0937,-0.27317 0.15625,-0.40625 0.036,-0.0749 0.0861,-0.14531 0.125,-0.21875 0.58879,0.39709 1.31026,0.61652 2.0625,0.5 12.95684,-1.14888 25.92364,-2.23551 38.875,-3.5 0.81244,-0.0412 1.50167,-0.4333 2,-1 0.10415,0.12796 0.21174,0.24434 0.3125,0.375 0.10523,0.13829 0.0512,0.0789 0.15625,0.21875 1.51795,2.01826 4.39295,-0.13798 2.875,-2.15625 -0.12248,-0.16275 -0.0633,-0.087 -0.1875,-0.25 -0.19231,-0.24887 -0.38941,-0.47959 -0.59375,-0.71875 -0.1983,-0.23215 -0.38847,-0.46147 -0.59375,-0.6875 -0.2053,-0.22573 -0.41306,-0.46796 -0.625,-0.6875 -0.21004,-0.21778 -0.44138,-0.4432 -0.65625,-0.65625 -0.2179,-0.21568 -0.43226,-0.41561 -0.65625,-0.625 -0.22753,-0.21221 -0.45287,-0.42064 -0.6875,-0.625 -0.23867,-0.20748 -0.47151,-0.42776 -0.71875,-0.625 -0.24626,-0.19691 -0.49685,-0.37447 -0.75,-0.5625 -0.2559,-0.18976 -0.51864,-0.38208 -0.78125,-0.5625 -0.26381,-0.18097 -0.54297,-0.35887 -0.8125,-0.53125 -0.27295,-0.17362 -0.53326,-0.33658 -0.8125,-0.5 -0.27657,-0.16114 -0.56335,-0.31436 -0.84375,-0.46875 -0.28012,-0.15294 -0.56055,-0.32158 -0.84375,-0.46875 -0.29042,-0.15117 -0.58102,-0.29337 -0.875,-0.4375 -0.29857,-0.14527 -0.60371,-0.30064 -0.90625,-0.4375 -0.30953,-0.14002 -0.62318,-0.27727 -0.9375,-0.40625 -0.31825,-0.13035 -0.61484,-0.25591 -0.9375,-0.375 -0.3273,-0.12061 -0.6682,-0.23602 -1,-0.34375 -0.33709,-0.10925 -0.65885,-0.2165 -1,-0.3125 -0.34862,-0.0965 -0.70928,-0.1717 -1.0625,-0.25 -0.35109,-0.0774 -0.70829,-0.15685 -1.0625,-0.21875 -0.35811,-0.0618 -0.70159,-0.11345 -1.0625,-0.15625 -0.35231,-0.0431 -0.70915,-0.0912 -1.0625,-0.125 -0.36368,-0.0345 -0.72906,-0.0721 -1.09375,-0.0937 -0.37376,-0.0211 -0.75064,-0.0253 -1.125,-0.0312 -0.37496,-0.005 -0.75013,-0.0105 -1.125,0 z"
       id="path3050"
       inkscape:connector-curvature="0" />
    <path
       style="fill:#808080;fill-opacity:1;stroke:none"
       id="path2995"
       d="m 355.65965,687.96305 c -0.0716,0.0184 -0.1406,0.0455 -0.2106,0.0693 0.29976,-0.0415 0.60115,-0.0684 0.90252,-0.095 0.60952,-0.0499 1.22,-0.0866 1.82984,-0.13247 0.81276,-0.0645 1.62527,-0.13182 2.43823,-0.19384 0.98597,-0.0746 1.96983,-0.17359 2.95384,-0.2702 0.98503,-0.10126 1.97066,-0.19642 2.95691,-0.28501 1.15329,-0.10502 2.30571,-0.21889 3.45777,-0.33644 1.15842,-0.11896 2.31784,-0.22785 3.47771,-0.33167 1.23157,-0.10955 2.46409,-0.20789 3.69694,-0.30167 1.36021,-0.10118 2.72146,-0.18741 4.0816,-0.28932 1.43626,-0.10984 2.87262,-0.21794 4.30852,-0.33242 1.47963,-0.11658 2.95824,-0.24552 4.43658,-0.37714 1.48029,-0.13489 2.96186,-0.2547 4.44311,-0.37825 1.62442,-0.13355 3.24753,-0.28261 4.87014,-0.43655 1.6126,-0.15692 3.22574,-0.30792 4.83935,-0.4539 1.64184,-0.1472 3.28446,-0.28544 4.92728,-0.42119 1.70707,-0.13835 3.4134,-0.2859 5.11932,-0.43798 1.7335,-0.15048 3.46519,-0.32053 5.197,-0.48908 1.74034,-0.17513 3.48036,-0.35303 5.2197,-0.53764 1.70729,-0.18392 3.4158,-0.35631 5.12357,-0.53551 1.74731,-0.18274 3.49394,-0.37186 5.23988,-0.56722 1.76056,-0.19981 3.52044,-0.4057 5.27984,-0.61539 1.75578,-0.20672 3.50981,-0.42765 5.26442,-0.64406 1.76132,-0.22015 3.52131,-0.4507 5.28136,-0.68074 1.73962,-0.22677 3.48026,-0.44555 5.22016,-0.67019 0.30234,-0.04 0.60468,-0.0799 0.90704,-0.11992 14.16236,-1.87318 11.51329,-21.9018 -2.64909,-20.02861 l 0,0 c -0.28166,0.0372 -0.56332,0.0745 -0.84498,0.1118 -1.75031,0.22599 -3.50137,0.446 -5.25138,0.67426 -1.71172,0.22371 -3.42336,0.44803 -5.13629,0.6623 -1.7274,0.21306 -3.45424,0.43066 -5.18282,0.63417 -1.71139,0.20409 -3.4233,0.40419 -5.13581,0.59873 -1.6998,0.19038 -3.40033,0.37422 -5.10148,0.55221 -1.71553,0.18015 -3.4318,0.35309 -5.14683,0.53797 -1.68095,0.17844 -3.36257,0.3503 -5.04443,0.5198 -1.6775,0.16329 -3.35484,0.32827 -5.03398,0.4739 -1.66253,0.14822 -3.32547,0.29203 -4.98916,0.42679 -1.69501,0.14008 -3.38981,0.28277 -5.0838,0.43475 -1.64326,0.14868 -3.28606,0.30232 -4.9283,0.46214 -1.54598,0.14688 -3.0925,0.28875 -4.64024,0.41605 -1.51865,0.12671 -3.03765,0.24965 -4.55532,0.38791 -1.41644,0.12612 -2.83312,0.24985 -4.2508,0.36146 -1.405,0.11206 -2.81047,0.2177 -4.21581,0.32524 -1.36676,0.10296 -2.73478,0.18772 -4.10152,0.29083 -1.32255,0.10071 -2.64474,0.2063 -3.9659,0.32396 -1.24285,0.11136 -2.48523,0.22804 -3.72654,0.35551 -1.0718,0.10938 -2.14393,0.21549 -3.21686,0.31331 -1.04091,0.0937 -2.08127,0.1934 -3.1209,0.30043 -0.83868,0.0824 -1.67715,0.16794 -2.51748,0.23213 -0.8084,0.0617 -1.61641,0.12799 -2.42456,0.19282 -0.70041,0.0535 -1.40191,0.0923 -2.10162,0.15485 -0.70613,0.0635 -1.41171,0.1353 -2.11313,0.23996 -0.81214,0.12539 -1.62198,0.27338 -2.41143,0.50562 -13.72013,3.97991 -8.09171,23.3831 5.62843,19.4032 z"
       inkscape:connector-curvature="0" />

    <path
       style="fill:#808080;fill-opacity:1;stroke:none"
       id="path2999"
       d="m 349.31075,689.71742 c -0.62431,0.009 -1.24776,-0.022 -1.87045,-0.0635 -0.7678,-0.0607 -1.533,-0.1497 -2.29695,-0.24662 -0.78389,-0.10434 -1.56615,-0.21979 -2.34745,-0.34187 -0.92117,-0.14347 -1.83713,-0.31758 -2.75319,-0.49008 -0.97085,-0.18448 -1.93908,-0.38221 -2.90647,-0.58396 -1.0486,-0.22294 -2.09386,-0.46136 -3.1378,-0.70511 -1.14735,-0.26895 -2.28774,-0.566 -3.42568,-0.87195 -1.16517,-0.31598 -2.32459,-0.65232 -3.48245,-0.9939 -1.14484,-0.34333 -2.28628,-0.69778 -3.42987,-1.0452 -1.21585,-0.36909 -2.42574,-0.75734 -3.63488,-1.14772 -1.26013,-0.40724 -2.51117,-0.84177 -3.76283,-1.27413 -1.24402,-0.42634 -2.4856,-0.85974 -3.72522,-1.29866 -1.31961,-0.47111 -2.63358,-0.95786 -3.94455,-1.45244 -1.31448,-0.50066 -2.62617,-1.00859 -3.93837,-1.51521 -1.35795,-0.52609 -2.71102,-1.06457 -4.06234,-1.60742 -1.36404,-0.54451 -2.72191,-1.10419 -4.07901,-1.66569 -1.38281,-0.57328 -2.76272,-1.15348 -4.1391,-1.74202 -1.4078,-0.60714 -2.81017,-1.22682 -4.21098,-1.84988 -1.40719,-0.62569 -2.81038,-1.26037 -4.2111,-1.90039 -1.40945,-0.65043 -2.81842,-1.30191 -4.22788,-1.95233 -1.43728,-0.66304 -2.86887,-1.33826 -4.30318,-2.00767 -1.45618,-0.67498 -2.90573,-1.36417 -4.35573,-2.0523 -1.48496,-0.69608 -2.96042,-1.41208 -4.43152,-2.1369 -1.5226,-0.74721 -3.02811,-1.52821 -4.5315,-2.3131 -1.49816,-0.78477 -2.985,-1.59088 -4.46759,-2.40458 -1.48603,-0.81669 -2.9597,-1.65529 -4.42745,-2.50428 -1.4806,-0.85642 -2.94134,-1.74627 -4.40058,-2.63837 -1.45365,-0.88772 -2.8907,-1.80212 -4.32437,-2.72165 -1.50711,-0.96662 -2.97663,-1.98959 -4.43507,-3.02764 -1.43905,-1.02289 -2.84468,-2.09109 -4.23667,-3.17678 -1.3367,-1.05327 -2.6598,-2.12364 -3.9724,-3.20674 -1.28523,-1.06392 -2.5559,-2.14524 -3.82648,-3.22654 -1.24161,-1.06329 -2.48912,-2.11961 -3.73856,-3.17367 -1.2636,-1.06761 -2.52456,-2.13834 -3.78663,-3.20777 -0.85491,-0.72627 -1.7054,-1.45775 -2.55504,-2.19018 -55.46269,-39.50664 2.37204,-24.62963 13.19188,-15.30156 l 0,0 c 0.80612,0.69504 1.61314,1.38907 2.42421,2.07835 1.25089,1.06001 2.50073,2.12126 3.75315,3.17948 1.27152,1.07278 2.54121,2.14771 3.80482,3.22981 1.19344,1.01569 2.38676,2.03166 3.59364,3.03138 1.17003,0.96619 2.35013,1.92013 3.54103,2.86048 1.1586,0.90482 2.32835,1.79535 3.52663,2.64729 1.19203,0.84949 2.39217,1.68806 3.62404,2.47919 1.31083,0.84105 2.62462,1.67763 3.95378,2.48953 1.3199,0.80693 2.64042,1.61302 3.97951,2.38792 1.33676,0.77348 2.67883,1.53761 4.03231,2.28156 1.35927,0.74629 2.72246,1.48558 4.09588,2.20556 1.36442,0.71235 2.73014,1.42237 4.1121,2.10031 1.38176,0.68108 2.76787,1.35334 4.16287,2.00696 1.41096,0.66961 2.82138,1.34047 4.23843,1.9971 1.40782,0.65712 2.81303,1.31984 4.22373,1.97079 1.38684,0.64 2.77328,1.28087 4.15998,1.92115 1.33888,0.61195 2.68027,1.21849 4.02537,1.81665 1.31204,0.58378 2.62567,1.16407 3.94404,1.73342 1.30291,0.55739 2.60941,1.10628 3.91842,1.64918 1.2932,0.53506 2.58702,1.06867 3.8869,1.58736 1.26641,0.50888 2.53449,1.01362 3.80709,1.50687 1.26458,0.48824 2.52867,0.97774 3.79531,1.4606 1.18169,0.44617 2.36628,0.88478 3.55562,1.31019 1.19021,0.42163 2.38249,0.83743 3.57698,1.2468 1.12238,0.38772 2.24392,0.77829 3.37369,1.14412 1.09845,0.35466 2.19739,0.70802 3.30192,1.0434 1.09153,0.3318 2.18127,0.66942 3.27366,0.99841 1.00259,0.29596 2.00636,0.58789 3.01517,0.86208 0.92117,0.24826 1.84426,0.4895 2.77304,0.7079 0.88659,0.20748 1.77447,0.40971 2.66481,0.60052 0.83881,0.17498 1.67824,0.34698 2.52001,0.50728 0.71039,0.13378 1.42034,0.27099 2.1345,0.3835 0.59809,0.0935 1.19677,0.18256 1.79671,0.26353 0.36251,0.0475 0.72713,0.0865 1.08958,0.12855 0.17688,0.0123 0.30196,0.0299 0.50853,0.0175 14.28571,0 14.28571,20.20305 0,20.20305 z"
       inkscape:connector-curvature="0"
       sodipodi:nodetypes="ccccccccccccccccccccccccccscscccccccccccccccccccccccccccccccccccccccccccccc" />
    <path
       inkscape:connector-curvature="0"
       d="m 465.8239,676.65077 c 0.61229,-0.12228 1.21534,-0.28345 1.81544,-0.45476 0.73795,-0.22053 1.46741,-0.46819 2.19398,-0.72332 0.74452,-0.26659 1.48511,-0.54369 2.22337,-0.82707 0.87052,-0.33366 1.72953,-0.69618 2.58896,-1.05715 0.91048,-0.38418 1.81563,-0.78077 2.7191,-1.18111 0.97843,-0.43811 1.95035,-0.89066 2.91986,-1.34813 1.06531,-0.50383 2.11792,-1.03366 3.16628,-1.57169 1.07287,-0.55354 2.13584,-1.12579 3.19619,-1.70284 1.04726,-0.57602 2.08885,-1.16219 3.13401,-1.74195 1.11128,-0.61611 2.2127,-1.24971 3.31294,-1.88523 1.14655,-0.66271 2.27849,-1.3502 3.41149,-2.03569 1.12679,-0.678 2.24972,-1.36239 3.36957,-2.05177 1.1913,-0.73764 2.37381,-1.48939 3.55173,-2.24817 1.18008,-0.76545 2.35592,-1.53743 3.53252,-2.30824 1.21724,-0.79945 2.42712,-1.60998 3.63436,-2.42442 1.21933,-0.81873 2.42944,-1.651 3.63842,-2.4849 1.23165,-0.8508 2.45901,-1.70776 3.68116,-2.57213 1.24897,-0.88916 2.48999,-1.78944 3.72879,-2.69269 1.24447,-0.90716 2.48315,-1.82227 3.71829,-2.7421 1.2415,-0.93182 2.4823,-1.86458 3.72381,-2.79639 1.26605,-0.95 2.52399,-1.91071 3.7858,-2.86632 1.28203,-0.96564 2.5546,-1.94378 3.82782,-2.92098 1.30574,-0.99231 2.598,-2.0021 3.88416,-3.01961 1.3318,-1.05021 2.6398,-2.12986 3.94491,-3.21287 1.30003,-1.08179 2.5845,-2.18208 3.86323,-3.2889 1.28147,-1.11045 2.54625,-2.23974 3.80306,-3.37794 1.26781,-1.14817 2.50919,-2.32484 3.74863,-3.50341 1.23489,-1.1731 2.44795,-2.36882 3.65664,-3.56883 1.27059,-1.26147 2.49261,-2.57015 3.70062,-3.89125 1.19225,-1.30219 2.3423,-2.64168 3.47535,-3.9954 1.0858,-1.31042 2.1547,-2.63471 3.21067,-3.96923 1.03324,-1.31002 2.04858,-2.634 3.06385,-3.95795 0.99072,-1.30025 1.98867,-2.59492 2.98898,-3.88779 1.01132,-1.3091 2.0194,-2.62068 3.02883,-3.93123 0.68339,-0.88956 1.36137,-1.78328 2.03831,-2.67776 8.62043,-11.39166 -7.48979,-23.58281 -16.11023,-12.19115 l 0,0 c -0.64224,0.84879 -1.28557,1.69676 -1.93387,2.54096 -1.00048,1.29899 -1.99968,2.59898 -3.00203,3.89654 -1.01797,1.31581 -2.0337,2.63334 -3.04198,3.9566 -0.95362,1.2436 -1.90706,2.48745 -2.87717,3.71825 -0.94112,1.19029 -1.89465,2.37072 -2.86161,3.54013 -0.94282,1.12787 -1.89955,2.24414 -2.89228,3.32865 -0.98713,1.0808 -1.98448,2.15264 -3.02281,3.18475 -1.10505,1.0975 -2.21395,2.19124 -3.34303,3.26409 -1.12109,1.06603 -2.24296,2.13139 -3.38953,3.17014 -1.1446,1.03687 -2.29634,2.06572 -3.46348,3.07724 -1.17231,1.01501 -2.34991,2.02401 -3.54157,3.01628 -1.18448,0.9829 -2.3707,1.96381 -3.57955,2.91677 -1.20799,0.95598 -2.42207,1.90425 -3.64877,2.83616 -1.23895,0.9509 -2.4771,1.90291 -3.72472,2.84239 -1.23849,0.93802 -2.47326,1.88098 -3.71587,2.81357 -1.22157,0.91689 -2.44258,1.83454 -3.66396,2.75167 -1.18058,0.87938 -2.36474,1.75402 -3.55429,2.62123 -1.16025,0.84621 -2.32278,1.68934 -3.49224,2.52278 -1.15686,0.81849 -2.31902,1.62943 -3.48489,2.43504 -1.15205,0.79462 -2.30501,1.58796 -3.46704,2.36798 -1.13136,0.7634 -2.26521,1.52311 -3.40591,2.27253 -1.13389,0.74283 -2.26705,1.4868 -3.4041,2.22481 -1.06169,0.68431 -2.1278,1.36182 -3.20133,2.02744 -1.07517,0.6621 -2.15359,1.31894 -3.23552,1.96994 -1.01597,0.61471 -2.03052,1.23203 -3.05832,1.82688 -0.99951,0.57736 -1.99979,1.15356 -3.00929,1.71334 -0.99756,0.55356 -1.99213,1.11243 -2.99111,1.66342 -0.91812,0.49984 -1.83823,0.99599 -2.767,1.47585 -0.84852,0.43612 -1.7004,0.86576 -2.56263,1.27428 -0.82328,0.38899 -1.64892,0.7731 -2.47936,1.14657 -0.78338,0.34717 -1.568,0.69157 -2.35736,1.02502 -0.66647,0.27993 -1.33179,0.56313 -2.00642,0.82306 -0.56513,0.21697 -1.13177,0.42973 -1.70134,0.63484 -0.34446,0.12256 -0.69277,0.23722 -1.03832,0.35443 -0.17035,0.0492 -0.28896,0.0926 -0.49352,0.12391 -13.96736,2.99907 -9.72605,22.7519 4.24131,19.75284 z"
       id="path3001"
       style="fill:#808080;fill-opacity:1;stroke:none" />
    <path
       style="fill:#808080;fill-opacity:1;stroke:none"
       id="path3013"
       d="m 343.83181,673.83473 c 0.0214,-0.0953 -7e-4,0.004 0.0138,-0.0807 0.0245,-0.13986 0.0434,-0.28062 0.0628,-0.42125 0.0386,-0.28272 0.0716,-0.56616 0.10349,-0.8497 0.0506,-0.50355 0.10922,-1.00604 0.17496,-1.50783 0.0913,-0.67674 0.20248,-1.35051 0.31857,-2.02336 0.11521,-0.67227 0.2407,-1.34273 0.3694,-2.01252 0.13484,-0.70506 0.27933,-1.40823 0.42413,-2.11129 0.15423,-0.74802 0.31306,-1.49514 0.47428,-2.24169 0.15838,-0.72005 0.31007,-1.44153 0.45735,-2.16392 0.16752,-0.82327 0.3344,-1.6467 0.50628,-2.46906 0.1789,-0.85151 0.35144,-1.7043 0.53071,-2.55573 0.19304,-0.9101 0.38719,-1.82002 0.58609,-2.72887 0.20171,-0.92261 0.40675,-1.84449 0.61127,-2.76648 0.21991,-0.98131 0.44688,-1.961 0.67255,-2.94099 0.16697,-0.70772 0.0848,-0.36063 0.24653,-1.04129 3.30309,-13.8986 22.95868,-9.22733 19.65559,4.67128 l 0,0 c -0.1467,0.61725 -0.0752,0.31591 -0.21441,0.90403 -0.21354,0.92722 -0.42838,1.85414 -0.63673,2.78255 -0.20086,0.90537 -0.40226,1.8106 -0.60027,2.71659 -0.18768,0.85449 -0.36915,1.71038 -0.55111,2.5661 -0.17782,0.84432 -0.34852,1.69011 -0.52625,2.53446 -0.16549,0.78786 -0.32397,1.57721 -0.48497,2.36599 -0.16333,0.80009 -0.33098,1.59929 -0.5063,2.39684 -0.14768,0.68115 -0.29194,1.36309 -0.43289,2.04566 -0.12683,0.6158 -0.254,1.23158 -0.37195,1.84915 -0.10474,0.54477 -0.2074,1.08998 -0.30086,1.63681 -0.0699,0.4043 -0.13865,0.8088 -0.1958,1.21514 -0.0502,0.38169 -0.0915,0.76419 -0.13091,1.14719 -0.0521,0.45935 -0.10645,0.91846 -0.17003,1.37639 -0.0652,0.46421 -0.13439,0.92798 -0.22198,1.38859 -0.0939,0.4896 -0.19708,0.97753 -0.3255,1.45941 -3.63562,13.81535 -23.17347,8.67381 -19.53786,-5.14154 z"
       inkscape:connector-curvature="0" />
    <path
       style="fill:#808080;fill-opacity:1;stroke:none"
       id="path3015"
       d="m 447.71625,672.32628 c -0.13085,-0.2386 -0.21534,-0.37337 -0.3642,-0.62831 -0.21804,-0.36881 -0.42782,-0.74232 -0.63244,-1.11871 -0.28203,-0.5188 -0.5358,-1.05209 -0.78781,-1.58589 -0.21164,-0.45377 -0.41744,-0.9102 -0.62556,-1.36558 -0.18446,-0.39233 -0.36885,-0.78481 -0.55991,-1.17398 -0.22765,-0.46937 -0.46021,-0.93631 -0.69587,-1.40171 -0.26524,-0.5182 -0.53324,-1.03495 -0.80262,-1.55101 -0.3403,-0.65479 -0.66917,-1.3154 -0.99779,-1.9761 -0.32216,-0.65872 -0.64683,-1.3162 -0.97077,-1.97405 -0.32956,-0.65959 -0.65805,-1.3197 -0.98832,-1.97893 -0.35762,-0.71793 -0.71644,-1.43528 -1.07682,-2.15183 -0.41272,-0.81595 -0.80861,-1.64021 -1.20379,-2.46474 -0.3923,-0.82154 -0.78164,-1.64445 -1.16999,-2.46785 -0.37835,-0.79802 -0.7622,-1.59337 -1.14852,-2.38756 -0.42056,-0.86127 -0.83553,-1.72523 -1.25227,-2.58835 -0.43166,-0.90041 -0.86687,-1.7991 -1.29354,-2.7019 -0.26789,-0.56154 -0.13063,-0.27344 -0.41172,-0.86431 -6.13693,-12.90038 12.10697,-21.5793 18.24389,-8.67892 l 0,0 c 0.2835,0.59595 0.13844,0.29133 0.4352,0.91385 0.40236,0.85223 0.81401,1.7 1.22102,2.55001 0.40746,0.84454 0.81355,1.68971 1.2251,2.53227 0.4218,0.86712 0.84057,1.73569 1.25364,2.60702 0.37065,0.78596 0.74208,1.57153 1.11665,2.35564 0.33999,0.70975 0.68011,1.41953 1.03545,2.12177 0.36409,0.72471 0.72736,1.44983 1.08885,2.17583 0.35111,0.7009 0.70044,1.40266 1.05049,2.10409 0.31188,0.63356 0.62485,1.26658 0.93469,1.90114 0.26995,0.5428 0.53947,1.08583 0.8184,1.6241 0.30916,0.59228 0.61661,1.18544 0.92052,1.78043 0.27902,0.55198 0.55515,1.10542 0.82514,1.66188 0.26416,0.54304 0.52439,1.08803 0.77815,1.63601 0.17515,0.38332 0.34854,0.76743 0.52547,1.14992 0.0895,0.1904 0.1778,0.38146 0.27304,0.56903 0.10709,0.19882 0.21962,0.39453 0.33474,0.58883 0.15639,0.2661 0.31466,0.53124 0.46381,0.80149 7.06146,12.41843 -10.50085,22.40485 -17.56231,9.98642 z"
       inkscape:connector-curvature="0" />

  </g>
</svg>
